<?xml version="1.0" encoding="UTF-8"?>
<svg xmlns="http://www.w3.org/2000/svg" viewBox="0 0 151.92 206.43">
  <defs>
    <style>
      .cls-1 {
        fill: #171725;
      }

      .cls-2 {
        fill: #f9f9fa;
      }

      .cls-3 {
        fill: #31304d;
      }

      .cls-4 {
        fill: #87d5ef;
      }

      .cls-5 {
        fill: #5fb1e2;
      }

      .cls-6 {
        isolation: isolate;
      }

      .cls-7 {
        fill: #fff;
      }

      .cls-8 {
        fill: #1c1c2e;
      }

      .cls-9 {
        opacity: .56;
      }

      .cls-9, .cls-10 {
        fill: #73a3cc;
        mix-blend-mode: multiply;
      }

      .cls-10 {
        opacity: .3;
      }
    </style>
  </defs>
  <g class="cls-6">
    <g id="Layer_1" data-name="Layer 1">
      <g>
        <g>
          <g>
            <rect class="cls-3" x="28.8" y="75.99" width="8.88" height="15.4" transform="translate(21.91 173.03) rotate(-151.11)"/>
            <circle class="cls-3" cx="34.08" cy="91.4" r="6" transform="translate(-63.42 88.37) rotate(-67.77)"/>
            <g>
              <circle class="cls-3" cx="25.35" cy="155.68" r="12.05" transform="translate(-132.38 154.96) rotate(-80.49)"/>
              <path class="cls-2" d="M0,157.29l7.5,1.71c10.57,2.41,20.9-4.85,22.22-15.61l12.78-50.64c-.54.11-1.11.17-1.68.17-2.23,0-4.25-.9-5.72-2.35-1.49-1.47-2.41-3.52-2.41-5.78,0-.86.13-1.69.38-2.47.64-2.02-.57-4.17-2.61-4.78l-1.6-.47L2.56,150.16l-2.56,7.13Z"/>
              <path class="cls-2" d="M19.52,143.49l20.06,16.57,40.48-46.02c6.43-7.31,6.03-18.1-.88-23.81h0c-7.07-5.84-18.04-3.97-23.89,4.08l-35.76,49.17Z"/>
              <polygon class="cls-10" points="47.01 118.71 27.53 150.1 39.57 160.06 60.68 134.26 47.01 118.71"/>
              <circle class="cls-3" cx="64.05" cy="106.04" r="21.23"/>
              <path class="cls-2" d="M46.63,114.84c0-13.8,6.47-26.05,16.48-33.67,1.78-1.35,3.65-2.55,5.63-3.59,3.61-1.94,7.55-3.31,11.72-4.02,2.21-.39,4.47-.59,6.8-.59h13.33c.59,0,1.23.02,1.82.04,3,.14,5.94.61,8.74,1.41,17.31,4.8,30.07,21.07,30.07,40.42v91.59H46.63v-91.59Z"/>
              <path class="cls-10" d="M116.5,96.25s-17.68,10.16-20.28,39.47l-2.6,29.31,11.69-5.56s20.12-46.93,18.82-48.23c-1.29-1.29-7.63-15-7.63-15Z"/>
              <circle class="cls-1" cx="49.45" cy="158.68" r="12.05" transform="translate(-114.07 188.44) rotate(-83.01)"/>
              <path class="cls-3" d="M46.63,165.21c6.09-9.17,14.39-14.82,23.52-14.82,18.74,0,33.95,22.81,33.95,52.13,0,9.4-1.57-3.75-4.31,3.92h-53.15v-41.22Z"/>
              <rect class="cls-3" x="88.13" y="183.75" width="53.09" height="22.68"/>
              <polygon class="cls-10" points="120.16 154.43 141.22 124.48 141.22 206.43 120.16 206.43 120.16 154.43"/>
              <path class="cls-9" d="M47.64,159.47l68.72,7.61,24.94-36.31v18.83l-34.93,44.68c-3.12,3.99-8.73,4.99-13.04,2.33l-46.7-28.88,1.01-8.26Z"/>
              <path class="cls-3" d="M58.06,143.37h26.73c2.11,0,3.83-1.71,3.83-3.83h0c0-2.11-1.71-3.83-3.83-3.83h-26.73c-2.11,0-3.83,1.71-3.83,3.83h0c0,2.11,1.71,3.83,3.83,3.83Z"/>
              <polygon class="cls-3" points="77.75 83.94 104.09 73.12 104.09 50.44 77.75 50.44 77.75 83.94"/>
              <polygon class="cls-8" points="93.62 62.42 77.75 73.94 77.75 60.56 93.62 62.42"/>
              <path class="cls-2" d="M55.49,25.96v29.56c0,1.83.48,3.54,1.33,5.04.67,1.16,1.55,2.2,2.61,3.07,2.12,1.75,4.96,2.82,8.06,2.82h9.74c22.44,0,40.65-18.78,40.65-39.24v-1.26c0-4.43-1.21-8.59-3.37-12.24-.45-.77-.94-1.52-1.48-2.24-5.1-6.93-13.77-11.48-23.6-11.48h-5.5c-15.71,0-28.44,11.62-28.44,25.96Z"/>
              <path class="cls-10" d="M59.43,63.64c2.12,1.75,4.96,2.82,8.06,2.82h9.74c22.44,0,40.65-18.78,40.65-39.24v-1.26c0-4.43-1.21-8.59-3.37-12.24-8.84-.56-32.03-.39-35.45,16.56-4.15,20.54-5.94,22.28-10.82,26.88-3.65,3.44-6.8,5.25-8.81,6.47Z"/>
              <path class="cls-3" d="M55.5,25.96v29.56c0,1.82.47,3.53,1.32,5.04,3.8-1.21,7.2-3.19,9.97-5.72,4.77-4.35,7.75-12.56,7.75-19.21,0-13.33,11.84-24.14,26.44-24.14h12.07C107.94,4.56,99.27,0,89.43,0h-5.5C68.21,0,55.5,11.62,55.5,25.96Z"/>
              <path class="cls-2" d="M55.5,25.96v29.56c0,1.82.47,3.53,1.32,5.04,3.8-1.21,7.2-3.19,9.97-5.72,4.77-4.35,7.75-12.56,7.75-19.21,0-13.33,11.84-24.14,26.44-24.14h12.07C107.94,4.56,99.27,0,89.43,0h-5.5C68.21,0,55.5,11.62,55.5,25.96Z"/>
              <path class="cls-3" d="M87.45,33.05v8.81c0,3.52,2.85,6.36,6.36,6.36h.6c.39,0,.78-.03,1.15-.11,2.97-.53,5.22-3.13,5.22-6.26v-8.81c0-3.13-2.25-5.73-5.22-6.26-.37-.08-.76-.11-1.15-.11h-.6c-3.52,0-6.36,2.85-6.36,6.36Z"/>
              <path class="cls-8" d="M89.22,33.05v8.81c0,3.12,2.35,6.26,6.34,6.26,2.97-.53,5.22-3.13,5.22-6.26v-8.81c0-3.13-2.25-5.73-5.22-6.26-5.18,0-6.34,3.14-6.34,6.26Z"/>
              <path class="cls-2" d="M34.28,156.47c.76,1.69,2.03,3.15,3.75,4.15l52,29.95c3.65,2.1,8.32.77,10.29-2.95,1.46-2.75,2.15-5.69,2.15-8.57,0-.24,0-.48-.01-.71-.28-6.91-4.47-13.41-11.39-16.24l-45.13-17.88c-4.11-1.62-8.8-.07-11.13,3.68-1.67,2.69-1.76,5.91-.55,8.57Z"/>
              <path class="cls-10" d="M34.28,156.47c.76,1.69,2.03,3.15,3.75,4.15l52,29.95c3.65,2.1,8.32.77,10.29-2.95,1.46-2.75,2.15-5.69,2.15-8.57,0-.24,0-.48-.01-.71,0,0-4.03-7.13-13.55-1.39-9.52,5.74-54.64-20.48-54.64-20.48Z"/>
              <circle class="cls-3" cx="100.89" cy="175.72" r="12.05" transform="translate(-84.6 257.25) rotate(-83.86)"/>
              <circle class="cls-3" cx="130.69" cy="106.04" r="21.23"/>
              <rect class="cls-5" x="59.48" y="26.69" width="4.88" height="11.68" rx="2.33" ry="2.33"/>
              <path class="cls-2" d="M92.58,165.05l12.73,6.55,9.69,4.99.71.37,1.46-2.64,28.25-50.98c4.16-7.5,2.55-16.5-3.33-21.34-.8-.66-1.68-1.25-2.63-1.74-2.16-1.11-4.47-1.63-6.76-1.63-6.4,0-12.75,4.03-15.7,10.74l-24.42,55.69Z"/>
              <path class="cls-10" d="M105.31,171.6l10.4,5.36,1.46-2.64,28.25-50.98c4.16-7.5,2.55-16.5-3.33-21.34l-36.78,69.6Z"/>
            </g>
            <path class="cls-5" d="M60.83,117.58h20.71c3.64,0,6.59,2.95,6.59,6.59h0c0,3.64-2.95,6.59-6.59,6.59h-20.71c-3.64,0-6.59-2.95-6.59-6.59h0c0-3.64,2.95-6.59,6.59-6.59Z" transform="translate(142.37 248.35) rotate(-180)"/>
            <path class="cls-10" d="M0,157.29l7.5,1.71c10.57,2.41,20.9-4.85,22.22-15.61l12.78-50.64c-.54.11-1.11.17-1.68.17-2.23,0-4.25-.9-5.72-2.35l-16.65,49.9c-2.23,6.67-8.93,10.75-15.87,9.68l-2.56,7.13Z"/>
          </g>
          <circle class="cls-4" cx="80.35" cy="122.65" r="1.41"/>
          <circle class="cls-4" cx="75.36" cy="122.76" r="1.41"/>
          <path class="cls-7" d="M96.61,62.42h4.52c2.63,0,4.77,2.14,4.77,4.77h0c0,2.63-2.14,4.77-4.77,4.77h-4.52v-9.54h0Z" transform="translate(202.51 134.39) rotate(-180)"/>
        </g>
        <g>
          <path class="cls-3" d="M53.35,56.12h0c2.74,0,4.97,2.23,4.97,4.97v7.77c0,9.05-7.35,16.4-16.4,16.4h-4.97v-12.74c0-9.05,7.35-16.4,16.4-16.4Z" transform="translate(35.35 155.04) rotate(-137.74)"/>
          <path class="cls-7" d="M42.87,59.81h0v15.23h0c-4.19,0-7.58-3.4-7.58-7.58v-.06c0-4.19,3.4-7.58,7.58-7.58Z" transform="translate(22.66 143.6) rotate(-137.74)"/>
        </g>
      </g>
    </g>
  </g>
</svg>