<?xml version="1.0" encoding="UTF-8"?>
<svg id="Layer_1" xmlns="http://www.w3.org/2000/svg" version="1.1" viewBox="0 0 416 69">
  <!-- Generator: Adobe Illustrator 30.0.0, SVG Export Plug-In . SVG Version: 2.1.1 Build 123)  -->
  <defs>
    <style>
      .st0 {
        fill: #fff;
      }

      .st1 {
        fill: #d36948;
      }
    </style>
  </defs>
  <g>
    <path class="st1" d="M7.9,35.6c.3,0,.5,0,.8,0,.1,0,.3,0,.5.3,0,0,0,.1,0,.2v.6c.2,0,.3.2.4.2l.6-.2c0,0,.1,0,.2,0,.2,0,.4.2.5.2.3.4.6.8.8,1.3,0,.1,0,.3,0,.5,0,0,0,.1-.1.2l-.4.4c0,0,0,.2,0,.3l.4.4s0,0,.1.2c.1.2,0,.4,0,.5-.2.5-.4,1-.8,1.3,0,0-.2.2-.5.2,0,0-.1,0-.2,0l-.6-.2c0,0-.2,0-.3.2v.6c-.2,0-.2.1-.2.2-.1.2-.3.3-.5.3-.2,0-.5,0-.8,0s-.5,0-.8,0c-.1,0-.3,0-.5-.3,0,0,0-.1,0-.2v-.6c-.2,0-.3-.2-.4-.2l-.6.2c0,0-.1,0-.2,0-.2,0-.4-.2-.5-.2-.3-.4-.6-.8-.8-1.3,0-.1,0-.3,0-.5,0,0,0-.1.1-.2l.4-.4c0,0,0-.2,0-.3l-.4-.4s0,0-.1-.2c-.1-.2,0-.4,0-.5.2-.5.4-1,.8-1.3,0,0,.2-.2.5-.2,0,0,.1,0,.2,0l.6.2c0,0,.2,0,.3-.2v-.6c.2,0,.2-.1.2-.2.1-.2.3-.3.5-.3.2,0,.5,0,.8,0h0ZM7.3,36.4v.5c-.2.5-.8.8-1.3.7l-.5-.2c-.3.3-.5.7-.6,1l.4.4c.4.3.4,1,0,1.4l-.4.4c.1.4.3.7.6,1l.5-.2c.5-.2,1.1.2,1.2.7v.5c.5,0,.9,0,1.3,0v-.5c.2-.5.8-.8,1.3-.7l.5.2c.3-.3.5-.7.6-1l-.4-.4c-.4-.3-.4-1,0-1.4l.4-.4c-.1-.4-.3-.7-.6-1l-.5.2c-.5.2-1.1-.2-1.2-.7v-.5c-.5,0-.9,0-1.3,0h0ZM7.9,41c-.5,0-1-.3-1.3-.7-.3-.5-.3-1,0-1.5.3-.5.8-.7,1.3-.7s1,.3,1.3.7c.3.5.3,1,0,1.5-.3.5-.8.7-1.3.7ZM7.2,39.5c0,.3.1.5.4.6s.5.1.7,0,.4-.4.4-.6-.1-.5-.4-.6-.5-.1-.7,0c-.2.1-.4.4-.4.6Z"/>
    <path class="st1" d="M7.9,25.5c.3,0,.5,0,.8,0,.1,0,.3,0,.5.3,0,0,0,.1,0,.2v.6c.2,0,.3.2.4.1l.6-.2c0,0,.1,0,.2,0,.2,0,.4.1.5.2.3.4.6.9.8,1.3,0,.1,0,.3,0,.5,0,0,0,.1-.1.1l-.4.4c0,0,0,.2,0,.3l.4.4s0,.1.1.1c.1.2,0,.4,0,.5-.2.5-.4,1-.8,1.3,0,0-.2.2-.5.2,0,0-.1,0-.2,0l-.6-.2c0,0-.2,0-.3.2v.6c-.2,0-.2.1-.2.2-.1.2-.3.3-.5.3-.2,0-.5,0-.8,0s-.5,0-.8,0c-.1,0-.3,0-.5-.3,0,0,0-.1,0-.2v-.6c-.2,0-.3-.2-.4-.2l-.6.2c0,0-.1,0-.2,0-.2,0-.4-.2-.5-.2-.3-.4-.6-.9-.8-1.3,0-.1,0-.3,0-.5,0,0,0-.1.1-.1l.4-.4c0,0,0-.2,0-.3l-.4-.4s0-.1-.1-.1c-.1-.2,0-.4,0-.5.2-.5.4-1,.8-1.3,0,0,.2-.2.5-.2,0,0,.1,0,.2,0l.6.2c0,0,.2,0,.3-.1v-.6c.2,0,.2-.1.2-.2.1-.2.3-.3.5-.3.2,0,.5,0,.8,0h0ZM7.3,26.3v.5c-.2.5-.8.8-1.3.7l-.5-.2c-.3.3-.5.6-.6,1l.4.4c.4.4.4,1,0,1.4l-.4.4c.1.4.3.7.6,1l.5-.2c.5-.1,1.1.2,1.2.7v.5c.5,0,.9,0,1.3,0v-.5c.2-.5.8-.8,1.3-.7l.5.2c.3-.3.5-.6.6-1l-.4-.4c-.4-.4-.4-1,0-1.4l.4-.4c-.1-.4-.3-.7-.6-1l-.5.2c-.5.1-1.1-.2-1.2-.7v-.5c-.5,0-.9,0-1.3,0h0ZM7.9,31c-.5,0-1-.3-1.3-.7s-.3-1,0-1.5.8-.7,1.3-.7,1,.3,1.3.7.3,1,0,1.5-.8.7-1.3.7ZM7.2,29.5c0,.3.1.5.4.6s.5.1.7,0,.4-.4.4-.6-.1-.5-.4-.6-.5-.1-.7,0c-.2.1-.4.4-.4.6Z"/>
  </g>
  <g>
    <g>
      <path class="st0" d="M86.2,45.4c0,.2-.2.5-.4.7-.2.2-.3.3-.5.5-.2.1-.4.2-.6.3-.2,0-.4,0-.6,0h-1.7l9.5-24.2c.2-.5.4-.8.8-1,.3-.2.8-.4,1.2-.4h1.7l-9.4,24.1h0Z"/>
      <path class="st0" d="M96,45.4c0,.2-.2.5-.4.7-.2.2-.3.3-.5.5-.2.1-.4.2-.6.3-.2,0-.4,0-.6,0h-1.7l9.5-24.2c.2-.5.4-.8.8-1,.3-.2.8-.4,1.2-.4h1.7l-9.4,24.1h0Z"/>
    </g>
    <g>
      <path class="st0" d="M20.4,44.5h-4.6v-19.9h4.6v19.9Z"/>
      <path class="st0" d="M39,39.3c.1,0,.2,0,.3,0s.2.1.3.2l1.8,1.9c-.8,1-1.8,1.8-3,2.4s-2.6.8-4.3.8-2.9-.3-4.1-.8c-1.2-.5-2.2-1.2-3-2.1-.8-.9-1.5-2-1.9-3.2-.5-1.2-.7-2.6-.7-4.1s.2-2.9.7-4.1c.5-1.2,1.2-2.3,2-3.2.9-.9,1.9-1.6,3.1-2.1s2.6-.8,4-.8,1.5,0,2.1.2c.7.1,1.3.3,1.8.5.6.2,1.1.5,1.6.8.5.3.9.7,1.3,1.1l-1.6,2.1c0,.1-.2.2-.4.4s-.3.2-.6.2-.3,0-.5-.1-.3-.2-.5-.3c-.2-.1-.3-.2-.5-.3s-.4-.2-.7-.3-.6-.2-.9-.3c-.4,0-.8-.1-1.3-.1-.8,0-1.5.1-2.1.4-.6.3-1.2.7-1.6,1.2-.5.5-.8,1.2-1.1,2s-.4,1.7-.4,2.7.1,1.9.4,2.7.7,1.5,1.1,2c.5.5,1,1,1.7,1.2.6.3,1.3.4,2,.4s.8,0,1.2,0c.3,0,.7-.1,1-.2.3,0,.6-.2.8-.4.3-.2.5-.4.8-.6.1,0,.2-.2.4-.2s.3,0,.4,0h0Z"/>
      <path class="st0" d="M52,24.5c1.4,0,2.6.2,3.6.5s1.8.8,2.5,1.4,1.1,1.3,1.4,2.1c.3.8.5,1.6.5,2.6s-.2,1.9-.5,2.7-.8,1.5-1.5,2.1c-.7.6-1.5,1.1-2.5,1.4-1,.3-2.2.5-3.6.5h-2.4v6.7h-4.6v-19.9h7,0ZM52,34.3c1.2,0,2.1-.3,2.6-.9s.8-1.4.8-2.4,0-.9-.2-1.2c-.1-.4-.3-.7-.6-1-.3-.3-.6-.5-1-.6-.4-.1-.9-.2-1.5-.2h-2.4v6.3h2.4,0Z"/>
    </g>
    <path class="st0" d="M70.4,0c.7,0,1.3.1,2,.4s1.2.7,1.7,1.1c.5.5.9,1.1,1.1,1.7.3.6.4,1.3.4,2v16.2h-7.4V7.3H7.3v14.2H0V5.3c0-.7.1-1.4.4-2s.6-1.2,1.1-1.7,1-.9,1.6-1.2C3.8.1,4.4,0,5.1,0h65.3,0Z"/>
    <path class="st0" d="M5.2,69c-.7,0-1.3-.1-2-.4s-1.2-.7-1.7-1.1c-.5-.5-.9-1.1-1.1-1.7C.1,65.2,0,64.5,0,63.8v-16.2h7.4v14.1h61v-14.2h7.3v16.2c0,.7-.1,1.4-.4,2.1-.3.7-.6,1.2-1.1,1.7s-1,.9-1.6,1.2c-.6.3-1.3.4-2,.4,0,0-65.3,0-65.3,0Z"/>
    <g>
      <path class="st1" d="M72,35.6c.3,0,.5,0,.8,0,.1,0,.3,0,.5.3,0,0,0,.1,0,.2l.2.6c0,0,.2.2.3.2l.6-.2c0,0,.1,0,.2,0,.2,0,.4.2.5.2.3.4.6.9.8,1.4,0,.1,0,.3,0,.6,0,0,0,.1-.1.2l-.4.4c0,0,0,.2,0,.3l.4.4s0,0,.1.2c.1.2,0,.4,0,.6-.2.5-.4,1-.8,1.4,0,0-.3.2-.5.2,0,0-.1,0-.2,0l-.6-.2c0,0-.2,0-.3.2l-.2.6c0,0,0,.1,0,.2-.1.2-.3.3-.5.3-.3,0-.5,0-.8,0s-.5,0-.8,0c-.1,0-.3,0-.5-.3,0,0,0-.1,0-.2l-.2-.6c0,0-.2-.2-.3-.2l-.6.2c0,0-.1,0-.2,0-.2,0-.4-.2-.5-.2-.3-.4-.6-.9-.8-1.4,0-.1,0-.3,0-.6,0,0,0-.1.1-.2l.4-.4c0,0,0-.2,0-.3l-.4-.4s0,0-.1-.2c-.1-.2,0-.4,0-.6.2-.5.4-1,.8-1.4,0,0,.3-.2.5-.2,0,0,.1,0,.2,0l.6.2c0,0,.2,0,.3-.2l.2-.6c0,0,0-.1,0-.2.1-.2.3-.3.5-.3.3,0,.5,0,.8,0ZM71.4,36.4v.5c-.2.5-.8.8-1.3.7l-.5-.2c-.3.3-.5.7-.6,1l.4.4c.4.4.4,1,0,1.4l-.4.4c.1.4.3.7.6,1l.6-.2c.5-.2,1.1.2,1.2.7v.5c.5,0,.9,0,1.3,0v-.5c.2-.5.8-.8,1.3-.7l.6.2c.3-.3.5-.7.6-1l-.4-.4c-.4-.4-.4-1,0-1.4l.4-.4c-.1-.4-.3-.7-.6-1l-.6.2c-.5.2-1.1-.2-1.2-.7v-.5c-.5,0-.9,0-1.3,0h0ZM72,41.2c-.5,0-1-.3-1.3-.8-.3-.5-.3-1,0-1.5s.8-.8,1.3-.8,1,.3,1.3.8c.3.5.3,1,0,1.5s-.8.8-1.3.8ZM71.3,39.6c0,.3.1.5.4.7.2.1.5.1.8,0,.2-.1.4-.4.4-.7s-.1-.5-.4-.7c-.2-.1-.5-.1-.8,0-.2.1-.4.4-.4.7Z"/>
      <path class="st1" d="M72,25.3c.3,0,.5,0,.8,0,.1,0,.3.1.5.3,0,0,0,.1,0,.2l.2.6c0,0,.2.2.3.1l.6-.2c0,0,.1,0,.2,0,.2,0,.4.1.5.2.3.4.6.9.8,1.4,0,.1,0,.3,0,.6,0,0,0,.1-.1.2l-.4.4c0,0,0,.2,0,.3l.4.4s0,.1.1.2c.1.2,0,.4,0,.6-.2.5-.4,1-.8,1.4,0,0-.3.2-.5.2,0,0-.1,0-.2,0l-.6-.2c0,0-.2,0-.3.2l-.2.6c0,0,0,.1,0,.2-.1.2-.3.3-.5.3-.3,0-.5,0-.8,0s-.5,0-.8,0c-.1,0-.3,0-.5-.3,0,0,0-.1,0-.2l-.2-.6c0,0-.2-.2-.3-.2l-.6.2c0,0-.1,0-.2,0-.2,0-.4-.2-.5-.2-.3-.4-.6-.9-.8-1.4,0-.1,0-.3,0-.6,0,0,0-.1.1-.2l.4-.4c0,0,0-.2,0-.3l-.4-.4s0-.1-.1-.2c-.1-.2,0-.4,0-.6.2-.5.4-1,.8-1.4,0,0,.3-.2.5-.2,0,0,.1,0,.2,0l.6.2c0,0,.2,0,.3-.1l.2-.6c0,0,0-.1,0-.2.1-.2.3-.3.5-.3.3,0,.5,0,.8,0ZM71.4,26.1v.5c-.2.5-.8.9-1.3.7l-.5-.2c-.3.3-.5.7-.6,1l.4.4c.4.4.4,1,0,1.4l-.4.4c.1.4.3.7.6,1l.6-.2c.5-.1,1.1.2,1.2.7v.5c.5,0,.9,0,1.3,0v-.5c.2-.5.8-.9,1.3-.7l.6.2c.3-.3.5-.7.6-1l-.4-.4c-.4-.4-.4-1,0-1.4l.4-.4c-.1-.4-.3-.7-.6-1l-.6.2c-.5.1-1.1-.2-1.2-.7v-.5c-.5,0-.9,0-1.3,0h0ZM72,30.9c-.5,0-1-.3-1.3-.8s-.3-1,0-1.5c.3-.5.8-.8,1.3-.8s1,.3,1.3.8.3,1,0,1.5c-.3.5-.8.8-1.3.8ZM71.3,29.4c0,.3.1.5.4.7.2.1.5.1.8,0,.2-.1.4-.4.4-.7s-.1-.5-.4-.7c-.2-.1-.5-.1-.8,0-.2.1-.4.4-.4.7Z"/>
    </g>
    <g>
      <path class="st1" d="M117.1,38.4v9.4h-5v-26.6h8.7c1.8,0,3.3.2,4.6.6s2.4,1,3.2,1.8c.9.8,1.5,1.6,1.9,2.7s.6,2.2.6,3.4-.2,2.5-.6,3.5c-.4,1.1-1.1,2-1.9,2.8-.9.8-1.9,1.4-3.2,1.8s-2.8.6-4.5.6h-3.7ZM117.1,34.6h3.7c.9,0,1.7-.1,2.4-.3.7-.2,1.2-.5,1.7-1,.4-.4.8-.9,1-1.5.2-.6.3-1.3.3-2s-.1-1.4-.3-1.9c-.2-.6-.6-1.1-1-1.5-.4-.4-1-.7-1.7-.9-.7-.2-1.5-.3-2.4-.3h-3.7v9.6Z"/>
      <path class="st1" d="M160.6,34.5c0,2-.3,3.8-1,5.4s-1.6,3.1-2.7,4.3c-1.2,1.2-2.6,2.2-4.3,2.8-1.7.7-3.5,1-5.5,1s-3.9-.3-5.5-1c-1.7-.7-3.1-1.6-4.3-2.8-1.2-1.2-2.1-2.7-2.8-4.3s-1-3.5-1-5.4.3-3.8,1-5.4,1.6-3.1,2.8-4.3c1.2-1.2,2.6-2.2,4.3-2.9s3.5-1,5.5-1,3.9.3,5.5,1,3.1,1.6,4.3,2.9,2.1,2.6,2.7,4.3,1,3.5,1,5.4ZM155.5,34.5c0-1.5-.2-2.8-.6-3.9s-.9-2.1-1.7-3c-.7-.8-1.6-1.4-2.6-1.9s-2.2-.6-3.5-.6-2.5.2-3.5.6-1.9,1-2.7,1.9-1.3,1.8-1.7,3-.6,2.5-.6,3.9.2,2.8.6,3.9.9,2.1,1.7,3c.7.8,1.6,1.4,2.7,1.8,1,.4,2.2.6,3.5.6s2.5-.2,3.5-.6,1.9-1,2.6-1.8c.7-.8,1.3-1.8,1.7-3s.6-2.5.6-3.9Z"/>
      <path class="st1" d="M169.6,37.4v10.4h-5v-26.6h8.1c1.8,0,3.4.2,4.7.6,1.3.4,2.4.9,3.2,1.6s1.4,1.5,1.8,2.4c.4.9.6,2,.6,3.1s-.1,1.8-.4,2.5c-.3.8-.6,1.5-1.1,2.2s-1.1,1.2-1.8,1.7c-.7.5-1.6.9-2.5,1.2.6.4,1.2.9,1.6,1.5l6.7,9.8h-4.5c-.4,0-.8,0-1.1-.3-.3-.2-.6-.4-.8-.7l-5.6-8.5c-.2-.3-.4-.5-.7-.7s-.6-.2-1.1-.2h-2.1ZM169.6,33.9h3.1c.9,0,1.8-.1,2.4-.3.7-.2,1.3-.5,1.7-1,.4-.4.8-.9,1-1.5s.3-1.2.3-1.9c0-1.4-.4-2.4-1.3-3.1-.9-.7-2.2-1.1-4.1-1.1h-3.2v8.8Z"/>
      <path class="st1" d="M206.3,21.2v4.1h-8v22.6h-5v-22.6h-8.1v-4.1h21Z"/>
      <path class="st1" d="M230.2,47.8h-3.8c-.4,0-.8-.1-1.1-.3s-.5-.5-.6-.8l-2-5.4h-11l-2,5.4c-.1.3-.3.5-.6.8-.3.2-.6.3-1.1.3h-3.9l10.5-26.6h5.1l10.5,26.6h0ZM212.9,37.8h8.5l-3.2-8.9c-.1-.4-.3-.9-.5-1.4-.2-.5-.4-1.1-.5-1.7-.2.6-.3,1.2-.5,1.8-.2.5-.3,1-.5,1.4l-3.2,8.8h0Z"/>
      <path class="st1" d="M237.9,43.7h10.7v4.1h-15.6v-26.6h5v22.5h0Z"/>
      <path class="st1" d="M273.4,26c-.1.3-.3.5-.5.6s-.4.2-.6.2-.5-.1-.8-.3-.7-.4-1.1-.6c-.4-.2-.9-.4-1.5-.6-.6-.2-1.2-.3-2-.3s-1.3,0-1.8.2c-.5.2-.9.4-1.3.7s-.6.6-.8,1.1-.3.9-.3,1.4.2,1.1.5,1.6c.4.4.8.8,1.4,1.1.6.3,1.2.6,2,.8s1.5.5,2.3.8,1.5.6,2.2.9c.7.3,1.4.8,2,1.3.6.5,1,1.2,1.4,2,.4.8.5,1.7.5,2.8s-.2,2.3-.6,3.4-1,2-1.8,2.8c-.8.8-1.8,1.4-2.9,1.8s-2.5.7-3.9.7-1.7,0-2.5-.2-1.6-.4-2.4-.7c-.8-.3-1.5-.7-2.1-1.1s-1.2-.9-1.8-1.4l1.4-2.4c.1-.2.3-.3.5-.4.2-.1.4-.2.6-.2s.6.1,1,.4.8.5,1.3.8c.5.3,1.1.6,1.7.8.7.2,1.5.4,2.4.4,1.4,0,2.5-.3,3.3-1,.8-.7,1.2-1.6,1.2-2.9s-.2-1.3-.5-1.7c-.4-.4-.8-.8-1.4-1.1-.6-.3-1.2-.5-2-.8s-1.5-.4-2.2-.7-1.5-.5-2.2-.9-1.4-.8-2-1.3-1-1.2-1.4-2.1c-.4-.8-.5-1.9-.5-3.1s.2-1.9.6-2.8c.4-.9,1-1.7,1.7-2.5s1.7-1.3,2.7-1.7c1.1-.4,2.3-.6,3.7-.6s3,.2,4.4.7c1.3.5,2.5,1.2,3.4,2.1l-1.2,2.3h0Z"/>
      <path class="st1" d="M290.7,37.5v10.3h-5v-10.3l-9.7-16.3h4.4c.4,0,.8.1,1,.3s.5.5.6.8l4.9,8.9c.3.5.5,1,.7,1.5s.4.9.6,1.4c.2-.5.3-.9.5-1.4.2-.5.4-1,.7-1.5l4.9-8.9c.1-.3.3-.5.6-.8.3-.2.6-.4,1-.4h4.4l-9.7,16.3h0Z"/>
      <path class="st1" d="M317.2,26c-.1.3-.3.5-.5.6s-.4.2-.6.2-.5-.1-.8-.3-.7-.4-1.1-.6c-.4-.2-.9-.4-1.5-.6-.6-.2-1.2-.3-2-.3s-1.3,0-1.8.2c-.5.2-.9.4-1.3.7s-.6.6-.8,1.1-.3.9-.3,1.4.2,1.1.5,1.6c.4.4.8.8,1.4,1.1.6.3,1.2.6,2,.8s1.5.5,2.3.8,1.5.6,2.2.9c.7.3,1.4.8,2,1.3.6.5,1,1.2,1.4,2,.4.8.5,1.7.5,2.8s-.2,2.3-.6,3.4-1,2-1.8,2.8c-.8.8-1.8,1.4-2.9,1.8s-2.5.7-3.9.7-1.7,0-2.5-.2-1.6-.4-2.4-.7c-.8-.3-1.5-.7-2.1-1.1s-1.2-.9-1.8-1.4l1.4-2.4c.1-.2.3-.3.5-.4.2-.1.4-.2.6-.2s.6.1,1,.4.8.5,1.3.8c.5.3,1.1.6,1.7.8.7.2,1.5.4,2.4.4,1.4,0,2.5-.3,3.3-1,.8-.7,1.2-1.6,1.2-2.9s-.2-1.3-.5-1.7c-.4-.4-.8-.8-1.4-1.1-.6-.3-1.2-.5-2-.8s-1.5-.4-2.2-.7-1.5-.5-2.2-.9-1.4-.8-2-1.3-1-1.2-1.4-2.1c-.4-.8-.5-1.9-.5-3.1s.2-1.9.6-2.8c.4-.9,1-1.7,1.7-2.5s1.7-1.3,2.7-1.7c1.1-.4,2.3-.6,3.7-.6s3,.2,4.4.7c1.3.5,2.5,1.2,3.4,2.1l-1.2,2.3h0Z"/>
      <path class="st1" d="M341.5,21.2v4.1h-8v22.6h-5v-22.6h-8v-4.1h21Z"/>
      <path class="st1" d="M361.5,21.2v3.9h-11.8v7.4h9.3v3.8h-9.3v7.5h11.8v4h-16.8v-26.6s16.8,0,16.8,0Z"/>
      <path class="st1" d="M379.7,38c.2.4.4.8.5,1.3.2-.4.4-.9.5-1.3.2-.4.4-.8.6-1.2l7.9-14.8c.1-.2.2-.3.3-.4s.2-.2.4-.2.3,0,.4,0,.4,0,.6,0h3.7v26.6h-4.4v-17.2c0-.3,0-.7,0-1s0-.8,0-1.2l-8,15.1c-.2.3-.4.6-.7.8s-.6.3-1,.3h-.7c-.4,0-.7,0-1-.3-.3-.2-.5-.5-.7-.8l-8.2-15.2c0,.4,0,.8.1,1.2s0,.8,0,1.1v17.2h-4.4v-26.6h3.7c.2,0,.4,0,.6,0,.2,0,.3,0,.4,0s.2.1.4.2.2.3.3.4l8,14.8c.2.4.4.8.6,1.2h0Z"/>
      <path class="st1" d="M414.3,26c-.1.3-.3.5-.5.6s-.4.2-.6.2-.5-.1-.8-.3-.7-.4-1.1-.6c-.4-.2-.9-.4-1.5-.6-.6-.2-1.2-.3-2-.3s-1.3,0-1.8.2c-.5.2-.9.4-1.3.7s-.6.6-.8,1.1-.3.9-.3,1.4.2,1.1.5,1.6c.4.4.8.8,1.4,1.1.6.3,1.2.6,2,.8s1.5.5,2.3.8,1.5.6,2.2.9c.7.3,1.4.8,2,1.3.6.5,1,1.2,1.4,2,.4.8.5,1.7.5,2.8s-.2,2.3-.6,3.4-1,2-1.8,2.8c-.8.8-1.8,1.4-2.9,1.8s-2.5.7-3.9.7-1.7,0-2.5-.2-1.6-.4-2.4-.7c-.8-.3-1.5-.7-2.1-1.1s-1.2-.9-1.8-1.4l1.4-2.4c.1-.2.3-.3.5-.4.2-.1.4-.2.6-.2s.6.1,1,.4.8.5,1.3.8c.5.3,1.1.6,1.7.8.7.2,1.5.4,2.4.4,1.4,0,2.5-.3,3.3-1,.8-.7,1.2-1.6,1.2-2.9s-.2-1.3-.5-1.7c-.4-.4-.8-.8-1.4-1.1-.6-.3-1.2-.5-2-.8s-1.5-.4-2.2-.7-1.5-.5-2.2-.9-1.4-.8-2-1.3-1-1.2-1.4-2.1c-.4-.8-.5-1.9-.5-3.1s.2-1.9.6-2.8c.4-.9,1-1.7,1.7-2.5s1.7-1.3,2.7-1.7c1.1-.4,2.3-.6,3.7-.6s3,.2,4.4.7c1.3.5,2.5,1.2,3.4,2.1l-1.2,2.3h0Z"/>
    </g>
  </g>
</svg>