<?xml version="1.0" encoding="UTF-8"?>
<svg id="Layer_1" data-name="Layer 1" xmlns="http://www.w3.org/2000/svg" viewBox="0 0 416 69">
  <defs>
    <style>
      .cls-1 {
        fill: #d36948;
      }

      .cls-2 {
        fill: #1b2b40;
      }
    </style>
  </defs>
  <g>
    <path class="cls-1" d="M7.9,35.57c.26,0,.52.03.77.07.12.02.34.09.46.31.03.06.06.12.07.18l.14.6c.02.09.17.18.26.15l.59-.17c.06-.02.13-.03.19-.03.25,0,.42.15.5.24.34.39.61.85.77,1.34.04.12.09.34-.04.55-.03.06-.08.11-.12.15l-.44.42c-.07.06-.07.24,0,.3l.44.42s.09.1.12.15c.13.21.08.43.04.55-.17.49-.43.95-.77,1.34-.08.09-.25.25-.5.24-.06,0-.13-.01-.19-.03l-.59-.17c-.09-.03-.24.06-.26.15l-.14.6c-.02.07-.04.13-.07.18-.12.22-.34.29-.46.31-.25.05-.51.07-.77.07s-.52-.03-.77-.07c-.12-.02-.34-.09-.46-.31-.03-.06-.06-.12-.07-.18l-.14-.6c-.02-.09-.17-.18-.26-.15l-.59.17c-.06.02-.13.03-.19.03-.25,0-.42-.15-.5-.24-.34-.39-.61-.85-.77-1.34-.04-.12-.09-.34.04-.55.03-.06.08-.11.12-.15l.44-.42c.07-.06.07-.24,0-.3l-.45-.42s-.09-.1-.12-.15c-.13-.21-.08-.43-.04-.55.17-.49.43-.95.77-1.34.08-.09.25-.25.5-.24.06,0,.13.01.19.03l.59.17c.09.03.24-.06.26-.15l.14-.6c.02-.07.04-.13.07-.18.12-.22.34-.29.46-.31.25-.05.51-.07.77-.07ZM7.32,36.36l-.13.54c-.12.5-.7.83-1.2.69l-.53-.16c-.26.3-.46.65-.59,1.02l.41.39c.37.35.37,1.03,0,1.38l-.41.39c.13.37.33.72.59,1.02l.54-.16c.49-.15,1.08.19,1.2.69l.13.54c.38.07.79.07,1.18,0l.13-.54c.12-.5.7-.83,1.2-.69l.54.16c.26-.3.46-.65.59-1.02l-.41-.39c-.37-.35-.37-1.03,0-1.38l.41-.39c-.13-.37-.33-.72-.59-1.02l-.54.16c-.49.15-1.07-.19-1.2-.69l-.13-.54c-.38-.07-.79-.07-1.18,0h0ZM7.9,41.02c-.53,0-1.02-.28-1.29-.74-.27-.46-.27-1.03,0-1.49.27-.46.76-.74,1.29-.74s1.02.28,1.29.74c.27.46.27,1.03,0,1.49-.27.46-.76.74-1.29.74ZM7.16,39.53c0,.27.14.51.37.64.23.13.51.13.74,0,.23-.13.37-.38.37-.64s-.14-.51-.37-.64c-.23-.13-.51-.13-.74,0-.23.13-.37.38-.37.64Z"/>
    <path class="cls-1" d="M7.9,25.5c.26,0,.52.03.77.07.12.02.34.09.46.31.03.06.06.12.07.18l.14.6c.02.09.17.18.26.15l.59-.17c.06-.02.13-.03.19-.03.25,0,.42.15.5.24.34.39.61.85.77,1.34.04.12.09.34-.04.55-.03.06-.08.11-.12.15l-.44.42c-.07.06-.07.24,0,.3l.44.42s.09.1.12.15c.13.21.08.43.04.55-.17.49-.43.95-.77,1.34-.08.09-.25.25-.5.24-.06,0-.13-.01-.19-.03l-.59-.17c-.09-.03-.24.06-.26.15l-.14.6c-.02.07-.04.13-.07.18-.12.22-.34.29-.46.31-.25.05-.51.07-.77.07s-.52-.03-.77-.07c-.12-.02-.34-.09-.46-.31-.03-.06-.06-.12-.07-.18l-.14-.6c-.02-.09-.17-.18-.26-.15l-.59.17c-.06.02-.13.03-.19.03-.25,0-.42-.15-.5-.24-.34-.39-.61-.85-.77-1.34-.04-.12-.09-.34.04-.55.03-.06.08-.11.12-.15l.44-.42c.07-.06.07-.24,0-.3l-.45-.42s-.09-.1-.12-.15c-.13-.21-.08-.43-.04-.55.17-.49.43-.95.77-1.34.08-.09.25-.25.5-.24.06,0,.13.01.19.03l.59.17c.09.03.24-.06.26-.15l.14-.6c.02-.07.04-.13.07-.18.12-.22.34-.29.46-.31.25-.05.51-.07.77-.07ZM7.32,26.3l-.13.54c-.12.5-.7.83-1.2.69l-.53-.16c-.26.3-.46.65-.59,1.02l.41.39c.37.35.37,1.03,0,1.38l-.41.39c.13.37.33.72.59,1.02l.54-.16c.49-.15,1.08.19,1.2.69l.13.54c.38.07.79.07,1.18,0l.13-.54c.12-.5.7-.83,1.2-.69l.54.16c.26-.3.46-.65.59-1.02l-.41-.39c-.37-.35-.37-1.03,0-1.38l.41-.39c-.13-.37-.33-.72-.59-1.02l-.54.16c-.49.15-1.07-.19-1.2-.69l-.13-.54c-.38-.07-.79-.07-1.18,0h0ZM7.9,30.95c-.53,0-1.02-.28-1.29-.74-.27-.46-.27-1.03,0-1.49.27-.46.76-.74,1.29-.74s1.02.28,1.29.74c.27.46.27,1.03,0,1.49-.27.46-.76.74-1.29.74ZM7.16,29.47c0,.27.14.51.37.64.23.13.51.13.74,0,.23-.13.37-.38.37-.64s-.14-.51-.37-.64c-.23-.13-.51-.13-.74,0-.23.13-.37.38-.37.64Z"/>
  </g>
  <g>
    <g>
      <path class="cls-2" d="M86.23,45.36c-.09.25-.22.46-.37.65-.15.18-.32.34-.52.46-.19.12-.4.22-.61.28-.22.06-.43.1-.63.1h-1.68l9.46-24.19c.18-.45.45-.8.79-1.04.35-.24.76-.37,1.25-.37h1.7l-9.38,24.11Z"/>
      <path class="cls-2" d="M96.02,45.36c-.09.25-.22.46-.37.65-.15.18-.32.34-.52.46-.19.12-.4.22-.61.28-.22.06-.43.1-.63.1h-1.68l9.46-24.19c.18-.45.45-.8.79-1.04.35-.24.76-.37,1.25-.37h1.7l-9.38,24.11Z"/>
    </g>
    <g>
      <path class="cls-2" d="M20.37,44.47h-4.65v-19.94h4.65v19.94Z"/>
      <path class="cls-2" d="M39.04,39.31c.11,0,.22.02.33.06s.21.11.31.21l1.83,1.93c-.8,1.05-1.81,1.84-3.02,2.37-1.21.53-2.64.8-4.29.8-1.51,0-2.87-.26-4.07-.77-1.2-.52-2.22-1.23-3.05-2.14-.84-.91-1.48-1.98-1.92-3.23-.45-1.25-.67-2.6-.67-4.06s.24-2.85.73-4.1c.48-1.25,1.16-2.32,2.04-3.22.88-.9,1.93-1.61,3.15-2.11,1.22-.5,2.57-.75,4.04-.75.75,0,1.45.07,2.11.2.66.13,1.28.31,1.85.55.57.23,1.1.51,1.59.84.48.33.91.68,1.29,1.07l-1.56,2.09c-.1.13-.22.24-.36.35-.14.11-.33.16-.57.16-.16,0-.32-.04-.47-.11-.15-.07-.3-.16-.47-.27-.16-.1-.34-.22-.54-.34-.2-.12-.43-.24-.7-.34-.27-.1-.58-.19-.94-.27-.36-.07-.78-.11-1.27-.11-.77,0-1.47.14-2.1.42-.63.28-1.18.7-1.64,1.24-.46.54-.82,1.21-1.07,2-.25.79-.38,1.69-.38,2.7s.14,1.93.42,2.72c.28.79.66,1.46,1.14,2.01.48.54,1.04.96,1.68,1.24.64.28,1.32.42,2.05.42.42,0,.8-.02,1.15-.06.35-.04.67-.11.97-.21.3-.1.58-.22.85-.38.26-.16.53-.36.81-.61.11-.09.23-.17.36-.23s.26-.09.4-.09Z"/>
      <path class="cls-2" d="M51.95,24.53c1.41,0,2.61.17,3.62.5,1.01.33,1.84.79,2.49,1.38s1.13,1.27,1.44,2.07c.31.79.47,1.65.47,2.57,0,.99-.16,1.91-.48,2.74-.32.83-.81,1.54-1.46,2.14-.66.59-1.49,1.06-2.5,1.39-1.01.33-2.2.5-3.58.5h-2.41v6.67h-4.63v-19.94h7.04ZM51.95,34.32c1.2,0,2.07-.29,2.6-.86.53-.57.79-1.38.79-2.41,0-.46-.07-.87-.21-1.25-.14-.37-.34-.7-.62-.97-.28-.27-.63-.48-1.05-.62-.42-.15-.93-.22-1.51-.22h-2.41v6.32h2.41Z"/>
    </g>
    <path class="cls-2" d="M70.42-.02c.69,0,1.35.14,1.99.42s1.21.66,1.71,1.13c.48.5.86,1.07,1.13,1.69.28.62.42,1.28.42,1.97v16.24h-7.41V7.35l-60.97.12v14.12H0V5.35c0-.72.13-1.4.4-2.05.27-.65.63-1.22,1.09-1.71.46-.49,1.01-.88,1.63-1.17C3.75.12,4.42-.02,5.14-.02h65.29Z"/>
    <path class="cls-2" d="M5.25,69.02c-.69,0-1.35-.14-1.99-.42s-1.21-.66-1.71-1.13c-.48-.5-.86-1.07-1.13-1.69-.28-.62-.42-1.28-.42-1.97v-16.24h7.41v14.08l60.97-.12v-14.12h7.29v16.24c0,.72-.13,1.4-.4,2.05-.27.65-.63,1.22-1.09,1.71-.46.49-1.01.88-1.63,1.17-.62.29-1.29.44-2.01.44H5.25Z"/>
    <g>
      <path class="cls-1" d="M72.03,35.59c.27,0,.53.03.79.08.12.02.34.1.46.32.03.06.06.12.07.19l.15.61c.02.09.18.18.27.15l.6-.18c.06-.02.13-.03.19-.03.25,0,.43.15.51.24.35.4.62.86.79,1.36.04.12.09.34-.04.56-.03.06-.08.11-.13.16l-.45.43c-.07.06-.07.24,0,.31l.45.43s.09.1.13.16c.13.21.08.44.04.56-.17.5-.44.96-.79,1.36-.08.09-.26.25-.51.24-.07,0-.13-.01-.19-.03l-.6-.18c-.09-.03-.24.06-.27.15l-.15.61c-.02.07-.04.13-.07.19-.12.22-.34.29-.46.32-.26.05-.52.08-.79.08s-.53-.03-.79-.08c-.12-.02-.34-.1-.46-.32-.03-.06-.06-.12-.07-.19l-.15-.61c-.02-.09-.18-.18-.27-.15l-.6.18c-.06.02-.13.03-.19.03-.25,0-.43-.15-.51-.24-.35-.4-.62-.86-.79-1.36-.04-.12-.09-.34.04-.56.03-.06.08-.11.13-.16l.45-.43c.07-.06.07-.24,0-.31l-.45-.43s-.09-.1-.13-.16c-.13-.21-.08-.44-.04-.56.17-.5.44-.96.79-1.36.08-.09.26-.25.51-.24.07,0,.13.01.19.03l.6.18c.09.03.24-.06.27-.15l.15-.61c.02-.07.04-.13.07-.19.12-.22.34-.29.46-.32.26-.05.52-.08.79-.08ZM71.43,36.4l-.13.55c-.12.51-.72.85-1.22.7l-.54-.16c-.26.3-.47.66-.6,1.04l.41.39c.38.36.38,1.05,0,1.41l-.41.39c.13.38.34.73.6,1.04l.55-.16c.5-.15,1.1.19,1.22.7l.13.55c.39.07.81.07,1.2,0l.13-.55c.12-.51.72-.85,1.22-.7l.55.16c.26-.3.47-.66.6-1.04l-.41-.39c-.38-.36-.38-1.05,0-1.41l.41-.39c-.13-.38-.34-.73-.6-1.04l-.55.16c-.5.15-1.1-.19-1.22-.7l-.13-.55c-.39-.07-.81-.07-1.2,0h0ZM72.03,41.15c-.54,0-1.04-.29-1.31-.76-.27-.47-.27-1.05,0-1.52.27-.47.77-.76,1.31-.76s1.04.29,1.31.76c.27.47.27,1.05,0,1.52-.27.47-.77.76-1.31.76ZM71.27,39.63c0,.27.14.52.38.66.23.14.52.14.76,0,.23-.14.38-.39.38-.66s-.14-.52-.38-.66c-.23-.14-.52-.14-.76,0-.23.14-.38.39-.38.66Z"/>
      <path class="cls-1" d="M72.03,25.33c.27,0,.53.03.79.08.12.02.34.1.46.32.03.06.06.12.07.19l.15.61c.02.09.18.18.27.15l.6-.18c.06-.02.13-.03.19-.03.25,0,.43.15.51.24.35.4.62.86.79,1.36.04.12.09.34-.04.56-.03.06-.08.11-.13.16l-.45.43c-.07.06-.07.24,0,.31l.45.43s.09.1.13.16c.13.21.08.44.04.56-.17.5-.44.96-.79,1.36-.08.09-.26.25-.51.24-.07,0-.13-.01-.19-.03l-.6-.18c-.09-.03-.24.06-.27.15l-.15.61c-.02.07-.04.13-.07.19-.12.22-.34.29-.46.32-.26.05-.52.08-.79.08s-.53-.03-.79-.08c-.12-.02-.34-.1-.46-.32-.03-.06-.06-.12-.07-.19l-.15-.61c-.02-.09-.18-.18-.27-.15l-.6.18c-.06.02-.13.03-.19.03-.25,0-.43-.15-.51-.24-.35-.4-.62-.86-.79-1.36-.04-.12-.09-.34.04-.56.03-.06.08-.11.13-.16l.45-.43c.07-.06.07-.24,0-.31l-.45-.43s-.09-.1-.13-.16c-.13-.21-.08-.44-.04-.56.17-.5.44-.96.79-1.36.08-.09.26-.25.51-.24.07,0,.13.01.19.03l.6.18c.09.03.24-.06.27-.15l.15-.61c.02-.07.04-.13.07-.19.12-.22.34-.29.46-.32.26-.05.52-.08.79-.08ZM71.43,26.14l-.13.55c-.12.51-.72.85-1.22.7l-.54-.16c-.26.3-.47.66-.6,1.04l.41.39c.38.36.38,1.05,0,1.41l-.41.39c.13.38.34.73.6,1.04l.55-.16c.5-.15,1.1.19,1.22.7l.13.55c.39.07.81.07,1.2,0l.13-.55c.12-.51.72-.85,1.22-.7l.55.16c.26-.3.47-.66.6-1.04l-.41-.39c-.38-.36-.38-1.05,0-1.41l.41-.39c-.13-.38-.34-.73-.6-1.04l-.55.16c-.5.15-1.1-.19-1.22-.7l-.13-.55c-.39-.07-.81-.07-1.2,0h0ZM72.03,30.89c-.54,0-1.04-.29-1.31-.76-.27-.47-.27-1.05,0-1.52.27-.47.77-.76,1.31-.76s1.04.29,1.31.76c.27.47.27,1.05,0,1.52-.27.47-.77.76-1.31.76ZM71.27,29.37c0,.27.14.52.38.66.23.14.52.14.76,0,.23-.14.38-.39.38-.66s-.14-.52-.38-.66c-.23-.14-.52-.14-.76,0-.23.14-.38.39-.38.66Z"/>
    </g>
    <g>
      <path class="cls-1" d="M117.08,38.44v9.38h-4.96v-26.64h8.68c1.78,0,3.32.21,4.62.63,1.3.42,2.38,1,3.22,1.75.85.75,1.48,1.65,1.88,2.69s.61,2.19.61,3.43-.22,2.47-.64,3.55c-.43,1.07-1.08,2-1.93,2.77-.86.77-1.93,1.38-3.22,1.81-1.29.43-2.8.64-4.53.64h-3.72ZM117.08,34.57h3.72c.91,0,1.7-.11,2.38-.34.67-.23,1.23-.55,1.68-.98.44-.42.77-.94,1-1.55.22-.61.33-1.29.33-2.04s-.11-1.36-.33-1.93c-.22-.58-.55-1.07-1-1.47-.44-.4-1-.72-1.68-.93-.68-.21-1.47-.32-2.38-.32h-3.72v9.56Z"/>
      <path class="cls-1" d="M160.55,34.5c0,1.95-.33,3.76-.98,5.43s-1.57,3.1-2.74,4.32c-1.18,1.22-2.6,2.16-4.26,2.85-1.66.68-3.49,1.02-5.51,1.02s-3.85-.34-5.52-1.02c-1.66-.68-3.09-1.63-4.27-2.85-1.19-1.22-2.1-2.66-2.76-4.32s-.97-3.47-.97-5.43.32-3.76.97-5.43,1.57-3.11,2.76-4.32c1.18-1.22,2.61-2.16,4.27-2.85s3.51-1.02,5.52-1.02,3.85.34,5.51,1.03,3.08,1.64,4.26,2.85c1.18,1.21,2.09,2.65,2.74,4.31s.98,3.47.98,5.43ZM155.46,34.5c0-1.46-.19-2.77-.58-3.93s-.94-2.15-1.67-2.96c-.72-.81-1.6-1.43-2.64-1.86s-2.21-.64-3.51-.64-2.47.21-3.52.64-1.93,1.05-2.66,1.86-1.29,1.8-1.69,2.96-.59,2.47-.59,3.93.2,2.77.59,3.93.95,2.14,1.69,2.95c.73.81,1.62,1.42,2.66,1.85,1.04.43,2.22.64,3.52.64s2.47-.21,3.51-.64c1.04-.43,1.92-1.05,2.64-1.85.73-.8,1.28-1.79,1.67-2.95s.58-2.47.58-3.93Z"/>
      <path class="cls-1" d="M169.57,37.41v10.41h-4.96v-26.64h8.13c1.82,0,3.37.19,4.67.56,1.3.37,2.36.9,3.19,1.58.83.68,1.44,1.48,1.82,2.42.39.94.58,1.97.58,3.1,0,.9-.13,1.75-.4,2.54-.26.8-.64,1.52-1.14,2.17s-1.11,1.22-1.84,1.71c-.73.49-1.57.88-2.5,1.18.63.36,1.17.87,1.62,1.53l6.67,9.84h-4.46c-.43,0-.79-.09-1.1-.26-.3-.17-.55-.42-.76-.74l-5.6-8.53c-.21-.32-.44-.55-.69-.68-.25-.13-.62-.2-1.11-.2h-2.12ZM169.57,33.86h3.09c.93,0,1.75-.12,2.44-.35.7-.23,1.27-.55,1.72-.97.45-.41.78-.9,1-1.46.22-.56.33-1.18.33-1.86,0-1.35-.44-2.39-1.33-3.11-.89-.72-2.25-1.09-4.08-1.09h-3.17v8.84Z"/>
      <path class="cls-1" d="M206.33,21.18v4.07h-8.02v22.57h-4.96v-22.57h-8.05v-4.07h21.02Z"/>
      <path class="cls-1" d="M230.18,47.82h-3.83c-.43,0-.78-.11-1.06-.32s-.48-.48-.6-.8l-1.99-5.43h-11.04l-1.99,5.43c-.1.28-.29.54-.58.78-.29.23-.64.35-1.06.35h-3.85l10.47-26.64h5.06l10.47,26.64ZM212.94,37.76h8.49l-3.24-8.86c-.15-.39-.31-.86-.49-1.39-.18-.53-.35-1.11-.52-1.74-.17.63-.34,1.21-.51,1.75-.16.54-.33,1.01-.49,1.42l-3.24,8.82Z"/>
      <path class="cls-1" d="M237.88,43.73h10.67v4.09h-15.62v-26.64h4.96v22.55Z"/>
      <path class="cls-1" d="M273.37,26.02c-.13.27-.29.46-.47.57s-.39.17-.64.17-.52-.1-.83-.29c-.31-.19-.67-.4-1.09-.64-.42-.23-.91-.44-1.46-.64-.56-.19-1.22-.28-1.98-.28-.69,0-1.29.08-1.8.25-.51.16-.94.4-1.29.69-.35.29-.61.65-.78,1.06-.17.41-.26.86-.26,1.35,0,.63.17,1.15.52,1.57.35.42.81.77,1.39,1.07.58.29,1.23.56,1.97.79s1.49.48,2.26.75,1.52.57,2.25.92c.74.35,1.39.79,1.97,1.33.58.53,1.04,1.19,1.39,1.96.35.78.52,1.71.52,2.82,0,1.2-.21,2.33-.62,3.38-.41,1.05-1.01,1.97-1.81,2.75-.79.78-1.76,1.39-2.9,1.84s-2.45.67-3.92.67c-.85,0-1.69-.08-2.51-.25-.82-.17-1.61-.4-2.37-.71-.75-.31-1.46-.68-2.12-1.11-.66-.43-1.24-.91-1.76-1.44l1.44-2.38c.13-.17.3-.32.49-.43.19-.12.4-.18.64-.18.31,0,.64.13,1,.38s.78.53,1.26.84c.49.31,1.06.59,1.71.84.66.25,1.45.38,2.37.38,1.41,0,2.5-.33,3.28-1,.77-.67,1.16-1.63,1.16-2.88,0-.7-.17-1.27-.52-1.71-.35-.44-.81-.81-1.39-1.12-.58-.3-1.23-.55-1.97-.76-.74-.21-1.49-.43-2.25-.68s-1.51-.54-2.25-.88-1.39-.79-1.97-1.34c-.58-.55-1.04-1.24-1.39-2.07-.35-.83-.52-1.85-.52-3.07,0-.97.19-1.91.58-2.84.39-.92.95-1.74,1.69-2.45s1.66-1.28,2.74-1.71c1.08-.43,2.31-.64,3.7-.64,1.57,0,3.02.25,4.35.74,1.33.49,2.46,1.18,3.39,2.06l-1.21,2.34Z"/>
      <path class="cls-1" d="M290.7,37.47v10.35h-4.96v-10.35l-9.71-16.29h4.37c.43,0,.77.1,1.02.31.25.21.46.47.64.79l4.88,8.9c.28.53.53,1.03.74,1.5.21.47.4.94.57,1.39.16-.47.34-.94.55-1.41.2-.47.44-.97.73-1.48l4.85-8.9c.13-.27.34-.52.61-.76.27-.23.61-.35,1.03-.35h4.38l-9.69,16.29Z"/>
      <path class="cls-1" d="M317.25,26.02c-.13.27-.29.46-.47.57s-.39.17-.64.17-.52-.1-.83-.29c-.31-.19-.67-.4-1.09-.64-.42-.23-.91-.44-1.46-.64-.56-.19-1.22-.28-1.98-.28-.69,0-1.29.08-1.8.25-.51.16-.94.4-1.29.69-.35.29-.61.65-.78,1.06-.17.41-.26.86-.26,1.35,0,.63.17,1.15.52,1.57.35.42.81.77,1.39,1.07.58.29,1.23.56,1.97.79s1.49.48,2.26.75,1.52.57,2.25.92c.74.35,1.39.79,1.97,1.33.58.53,1.04,1.19,1.39,1.96.35.78.52,1.71.52,2.82,0,1.2-.21,2.33-.62,3.38-.41,1.05-1.01,1.97-1.81,2.75-.79.78-1.76,1.39-2.9,1.84s-2.45.67-3.92.67c-.85,0-1.69-.08-2.51-.25-.82-.17-1.61-.4-2.37-.71-.75-.31-1.46-.68-2.12-1.11-.66-.43-1.24-.91-1.76-1.44l1.44-2.38c.13-.17.3-.32.49-.43.19-.12.4-.18.64-.18.31,0,.64.13,1,.38s.78.53,1.26.84c.49.31,1.06.59,1.71.84.66.25,1.45.38,2.37.38,1.41,0,2.5-.33,3.28-1,.77-.67,1.16-1.63,1.16-2.88,0-.7-.17-1.27-.52-1.71-.35-.44-.81-.81-1.39-1.12-.58-.3-1.23-.55-1.97-.76-.74-.21-1.49-.43-2.25-.68s-1.51-.54-2.25-.88-1.39-.79-1.97-1.34c-.58-.55-1.04-1.24-1.39-2.07-.35-.83-.52-1.85-.52-3.07,0-.97.19-1.91.58-2.84.39-.92.95-1.74,1.69-2.45s1.66-1.28,2.74-1.71c1.08-.43,2.31-.64,3.7-.64,1.57,0,3.02.25,4.35.74,1.33.49,2.46,1.18,3.39,2.06l-1.21,2.34Z"/>
      <path class="cls-1" d="M341.52,21.18v4.07h-8.02v22.57h-4.96v-22.57h-8.05v-4.07h21.02Z"/>
      <path class="cls-1" d="M361.46,21.18v3.94h-11.81v7.39h9.3v3.81h-9.3v7.54h11.81v3.96h-16.8v-26.64h16.8Z"/>
      <path class="cls-1" d="M379.71,37.99c.18.42.35.85.52,1.28.17-.44.35-.88.53-1.31.19-.43.38-.84.59-1.23l7.89-14.76c.1-.18.2-.33.3-.44s.22-.19.35-.24c.13-.05.27-.08.43-.09s.35-.02.57-.02h3.74v26.64h-4.37v-17.21c0-.32,0-.67.03-1.05s.04-.77.08-1.16l-8.05,15.11c-.19.34-.43.61-.72.8s-.64.29-1.03.29h-.68c-.4,0-.74-.1-1.03-.29-.3-.19-.54-.46-.72-.8l-8.16-15.16c.05.4.08.8.1,1.19s.03.75.03,1.08v17.21h-4.37v-26.64h3.74c.22,0,.41,0,.57.02.16.01.3.04.43.09.13.05.25.13.36.24s.22.26.31.44l7.96,14.79c.21.39.4.8.58,1.22Z"/>
      <path class="cls-1" d="M414.31,26.02c-.13.27-.29.46-.47.57s-.39.17-.64.17-.52-.1-.83-.29c-.31-.19-.67-.4-1.09-.64-.42-.23-.91-.44-1.46-.64-.56-.19-1.22-.28-1.98-.28-.69,0-1.29.08-1.8.25-.51.16-.94.4-1.29.69-.35.29-.61.65-.78,1.06-.17.41-.26.86-.26,1.35,0,.63.17,1.15.52,1.57.35.42.81.77,1.39,1.07.58.29,1.23.56,1.97.79s1.49.48,2.26.75,1.52.57,2.25.92c.74.35,1.39.79,1.97,1.33.58.53,1.04,1.19,1.39,1.96.35.78.52,1.71.52,2.82,0,1.2-.21,2.33-.62,3.38-.41,1.05-1.01,1.97-1.81,2.75-.79.78-1.76,1.39-2.9,1.84s-2.45.67-3.92.67c-.85,0-1.69-.08-2.51-.25-.82-.17-1.61-.4-2.37-.71-.75-.31-1.46-.68-2.12-1.11-.66-.43-1.24-.91-1.76-1.44l1.44-2.38c.13-.17.3-.32.49-.43.19-.12.4-.18.64-.18.31,0,.64.13,1,.38s.78.53,1.26.84c.49.31,1.06.59,1.71.84.66.25,1.45.38,2.37.38,1.41,0,2.5-.33,3.28-1,.77-.67,1.16-1.63,1.16-2.88,0-.7-.17-1.27-.52-1.71-.35-.44-.81-.81-1.39-1.12-.58-.3-1.23-.55-1.97-.76-.74-.21-1.49-.43-2.25-.68s-1.51-.54-2.25-.88-1.39-.79-1.97-1.34c-.58-.55-1.04-1.24-1.39-2.07-.35-.83-.52-1.85-.52-3.07,0-.97.19-1.91.58-2.84.39-.92.95-1.74,1.69-2.45s1.66-1.28,2.74-1.71c1.08-.43,2.31-.64,3.7-.64,1.57,0,3.02.25,4.35.74,1.33.49,2.46,1.18,3.39,2.06l-1.21,2.34Z"/>
    </g>
  </g>
</svg>