<?xml version="1.0" encoding="UTF-8"?>
<svg id="Layer_1" data-name="Layer 1" xmlns="http://www.w3.org/2000/svg" xmlns:xlink="http://www.w3.org/1999/xlink" viewBox="0 0 268.5 84.5">
  <defs>
    <style>
      .cls-1 {
        fill: #59b691;
      }

      .cls-2 {
        fill: url(#linear-gradient);
      }

      .cls-3 {
        fill: #fff;
      }
    </style>
    <linearGradient id="linear-gradient" x1="26.11" y1="72.51" x2="55.31" y2="5.84" gradientUnits="userSpaceOnUse">
      <stop offset="0" stop-color="#c4dc78"/>
      <stop offset=".06" stop-color="#8fcc8c"/>
      <stop offset=".24" stop-color="#4dbe9b"/>
      <stop offset=".64" stop-color="#0898c6"/>
      <stop offset=".8" stop-color="#2478b5"/>
      <stop offset="1" stop-color="#4e499e"/>
    </linearGradient>
  </defs>
  <path class="cls-2" d="M64.09,21.94s.06.01.07.02c.02,0,.03,0,.04.01,0,0,.02,0,.02.02,0,0,.01.01.02.02.1.16.21.29.31.42.1.13.22.24.34.36.12.11.24.23.39.35.15.12.31.26.49.41l.02.02c.19.15.58.48,1.07.89.49.41,1.1.92,1.7,1.42.62.5,1.22,1.01,1.7,1.41.48.41.83.7.93.78.13.12.24.22.33.32.09.1.17.19.22.28.06.09.1.18.14.28.03.1.05.21.07.32l.27,2.29c.02.12.03.23.01.33-.01.1-.04.18-.08.26-.05.08-.1.15-.18.23-.08.07-.17.14-.3.21-.09.05-.42.24-.88.49-.47.26-1.08.59-1.71.94-.65.35-1.32.72-1.89,1.02-.58.31-1.04.56-1.28.69h-.02c-.23.14-.43.24-.61.35-.18.1-.35.21-.51.32-.15.1-.29.23-.43.37-.14.14-.29.3-.43.5-.01.02-.02.02-.02.02-.01.01-.02.01-.04.01,0,0-.03,0-.05,0-.03,0-.06-.01-.1-.02-.04,0-.07-.02-.1-.02-.02,0-.04-.01-.05-.02-.02-.01-.03-.02-.03-.03-.01,0-.02-.02-.03-.03-.13-.26-.26-.49-.4-.69-.13-.2-.26-.38-.42-.57-.15-.18-.3-.35-.48-.54-.18-.19-.37-.38-.59-.61l-.02-.02c-.22-.22-.67-.69-1.22-1.25-.54-.56-1.17-1.22-1.78-1.85-.61-.63-1.18-1.22-1.62-1.68-.44-.46-.75-.78-.83-.87-.11-.12-.2-.23-.28-.34-.07-.1-.12-.2-.16-.3-.03-.1-.05-.19-.06-.29,0-.1,0-.21.02-.32l.37-2.11c.01-.11.04-.2.07-.28.04-.08.09-.15.15-.21.07-.07.14-.13.23-.18.09-.06.2-.11.33-.17.1-.04.45-.17.94-.36.48-.19,1.09-.41,1.71-.65.61-.23,1.22-.46,1.73-.66.51-.19.9-.34,1.1-.41h.02c.19-.08.36-.14.51-.2.15-.06.28-.12.4-.18.12-.06.24-.13.35-.21.11-.08.22-.17.33-.28,0,0,.01-.01.02-.02,0,0,0,0,.02,0,.01,0,.03,0,.05,0,.01,0,.04,0,.07.01M45.84,17.95s-.05-.01-.07-.01c-.02,0-.04,0-.05,0s-.01,0-.02,0c-.01,0-.02,0-.02.01-.16.09-.31.17-.46.24-.14.07-.29.13-.44.18-.15.06-.31.1-.49.15-.18.05-.37.1-.6.17h-.02c-.22.06-.7.19-1.29.36-.6.17-1.34.36-2.06.57-.74.2-1.46.4-2.03.56-.58.16-1,.28-1.12.31-.16.05-.29.09-.41.14-.12.05-.22.1-.31.15-.09.06-.16.12-.23.2-.07.07-.13.15-.19.25l-1.16,1.89c-.06.1-.12.2-.15.29-.02.09-.04.18-.04.26,0,.09.03.18.06.27.04.09.1.2.17.31.06.08.26.38.55.8.3.42.68.97,1.08,1.53.4.58.83,1.18,1.19,1.69.36.52.67.94.81,1.14l.02.02c.14.2.27.38.39.55.12.17.22.33.3.49.08.16.16.33.23.51.06.19.11.39.17.62,0,.01,0,.02,0,.04,0,0,.01.01.03.02,0,0,.02.01.04.02.02,0,.06.01.09.02.05,0,.07.02.1.02.02,0,.04,0,.05,0,.01,0,.02,0,.04-.01.02,0,.02-.01.03-.02.23-.17.43-.31.63-.44.19-.12.39-.23.6-.32.2-.1.41-.18.64-.27.23-.1.48-.19.77-.29h.03c.28-.12.87-.34,1.59-.61.71-.27,1.54-.58,2.35-.89.79-.3,1.56-.59,2.15-.82.58-.22.99-.38,1.1-.43.15-.06.28-.12.39-.19.1-.06.2-.13.27-.2.08-.07.13-.15.19-.24.04-.09.08-.19.11-.3l.56-2.05c.03-.1.05-.2.05-.29s-.01-.17-.04-.26-.07-.17-.13-.26c-.06-.09-.14-.18-.23-.29-.07-.08-.32-.35-.69-.72-.35-.37-.8-.83-1.25-1.3-.45-.46-.89-.92-1.26-1.3-.36-.38-.66-.68-.79-.82h-.02c-.14-.15-.26-.27-.37-.39-.11-.11-.2-.22-.28-.32-.09-.1-.16-.21-.22-.33-.07-.12-.13-.24-.18-.38,0,0,0-.01,0-.02,0,0-.01,0-.02-.02-.01,0-.02,0-.04-.01-.02,0-.04-.01-.07-.02M53,28.37s-.07-.02-.09-.02h-.05s-.02,0-.02,0c-.02,0-.02.01-.03.02-.17.15-.32.27-.48.38-.16.11-.32.2-.49.29-.17.09-.35.17-.54.25-.2.09-.42.17-.68.27h-.02c-.26.11-.79.32-1.46.59-.68.27-1.51.6-2.32.93-.83.33-1.66.67-2.32.93-.66.27-1.15.46-1.28.52-.18.08-.34.15-.47.23-.13.08-.25.16-.35.25-.09.09-.18.19-.25.3-.07.11-.13.24-.19.39l-1.14,2.93c-.06.16-.11.31-.13.45-.03.14-.03.28-.02.41.02.14.05.27.11.41.06.15.14.3.25.47.07.12.36.57.77,1.2.42.64.95,1.47,1.53,2.34.58.88,1.19,1.81,1.71,2.6.53.81.96,1.46,1.17,1.78l.02.03c.22.32.4.61.57.87.17.26.32.52.45.77.13.26.25.53.36.82.12.3.21.62.31,1,.02.02.02.04.03.06,0,.01.01.02.03.03.01.02.03.02.06.04.03,0,.06.02.12.03.05.01.09.02.12.03.03,0,.06,0,.07,0,.02,0,.03-.01.05-.02.01-.01.02-.03.03-.04.26-.3.48-.54.71-.76.22-.21.44-.39.67-.57.23-.16.47-.32.74-.49.27-.16.56-.33.88-.52l.04-.02c.33-.19,1.01-.58,1.83-1.06.82-.47,1.77-1.03,2.69-1.57.9-.52,1.76-1.03,2.42-1.42.66-.38,1.12-.66,1.25-.74.17-.11.31-.21.43-.32.11-.1.21-.21.28-.32.07-.11.12-.24.16-.38.04-.14.06-.29.08-.47l.22-3.2c.02-.16.01-.31,0-.44-.02-.14-.06-.26-.11-.39-.05-.12-.12-.25-.2-.38-.09-.13-.21-.27-.34-.43-.09-.11-.46-.51-.96-1.05-.49-.54-1.11-1.21-1.73-1.88-.61-.66-1.23-1.32-1.74-1.87-.49-.54-.88-.96-1.07-1.16l-.02-.02c-.19-.2-.35-.38-.5-.54-.14-.16-.27-.31-.38-.46-.12-.15-.22-.3-.31-.47-.09-.17-.19-.35-.27-.55,0-.01,0-.02,0-.03-.01,0-.02-.02-.03-.02-.01,0-.02-.01-.05-.02-.02,0-.05-.01-.08-.02M56.27,13.74s-.05,0-.06-.01c-.02,0-.03,0-.04,0,0,0-.02,0-.02,0t-.02.01c-.12.07-.22.13-.34.19-.11.05-.22.1-.33.14-.12.04-.24.08-.38.12-.14.04-.29.08-.47.12h-.02c-.18.05-.55.14-1.02.27-.47.12-1.03.27-1.6.42-.57.15-1.13.29-1.58.41-.44.12-.77.21-.86.23-.12.04-.23.07-.31.11-.09.03-.16.07-.22.12-.06.04-.12.09-.15.14-.04.06-.08.12-.1.19l-.56,1.45c-.03.07-.05.15-.06.22,0,.07,0,.13.02.2.02.07.06.13.11.21.05.07.12.15.2.24.06.06.29.29.61.62.32.33.75.75,1.18,1.19.45.44.92.9,1.31,1.29.39.4.72.72.88.87v.02c.18.16.31.29.44.42.12.13.24.25.34.37.1.12.2.25.28.38.09.14.17.29.26.46,0,.01,0,.02.01.02,0,0,0,.01.02.02.01,0,.03,0,.05.01.02,0,.04.01.07.02.04.01.06.02.08.02.02,0,.04,0,.05,0,.01,0,.03,0,.03,0,0,0,.02-.01.02-.02.15-.12.29-.23.43-.32.13-.09.27-.16.42-.23.15-.07.3-.13.47-.19.17-.06.35-.13.57-.2h.02c.21-.09.65-.24,1.18-.43.53-.19,1.16-.41,1.76-.63.6-.21,1.17-.42,1.61-.58.44-.15.75-.27.83-.3.11-.04.21-.09.29-.13.09-.05.15-.1.19-.15.05-.05.09-.11.12-.17.02-.07.03-.14.03-.23l.12-1.56c0-.08,0-.15,0-.22-.02-.07-.04-.13-.08-.19-.03-.07-.09-.13-.15-.21-.07-.07-.15-.14-.25-.23-.06-.06-.33-.27-.69-.57-.36-.29-.81-.66-1.27-1.03-.46-.37-.91-.74-1.29-1.04-.37-.3-.67-.54-.82-.65h-.01c-.14-.13-.26-.23-.37-.32-.12-.09-.21-.18-.3-.26-.09-.08-.17-.17-.25-.26-.07-.09-.14-.19-.22-.31-.01,0-.01-.01-.01-.02,0,0,0,0-.02,0,0,0-.02,0-.04-.01-.01,0-.03,0-.06-.02M37.25,37.51s-.08-.02-.1-.02c-.03,0-.05,0-.06,0-.02,0-.03,0-.05.01,0,0-.02.02-.03.03-.27.21-.51.39-.74.55-.24.16-.47.3-.72.42-.25.13-.5.25-.78.37-.28.12-.59.26-.96.41h-.03c-.36.16-1.12.49-2.08.89-.97.41-2.16.92-3.34,1.42-1.21.51-2.41,1.03-3.36,1.44-.96.42-1.68.72-1.87.81-.27.12-.5.24-.71.36-.22.12-.39.25-.55.38-.16.13-.31.28-.45.45-.14.17-.27.36-.4.58l-2.72,4.42c-.15.25-.28.47-.37.68-.09.21-.16.42-.19.62-.03.2-.04.41-.02.63.01.22.06.45.12.7.05.18.24.86.53,1.8.29.97.67,2.23,1.07,3.56.41,1.37.85,2.8,1.22,4.03.38,1.26.7,2.3.85,2.8l.02.05c.16.51.3.96.42,1.38.12.43.23.83.3,1.24.07.41.13.85.16,1.32.02.48.03,1.02,0,1.64,0,.04,0,.06,0,.09,0,.02.01.04.03.06.02.02.04.03.08.05.04.01.08.03.15.05.06.02.11.03.15.03.04,0,.07,0,.1,0,.02,0,.04-.02.06-.04.03-.02.05-.04.07-.07.47-.51.9-.93,1.31-1.3.39-.36.78-.68,1.16-.97.39-.29.79-.56,1.22-.85.44-.27.9-.57,1.43-.89l.05-.04c.52-.32,1.6-1,2.91-1.82,1.29-.8,2.79-1.75,4.23-2.65,1.4-.88,2.74-1.72,3.76-2.37,1-.63,1.72-1.09,1.9-1.21.26-.18.49-.35.68-.51.19-.17.35-.34.48-.52.14-.18.25-.38.35-.59.09-.22.17-.46.25-.74l1.33-4.87c.07-.24.11-.46.13-.66.02-.2.02-.39-.01-.58-.03-.19-.07-.37-.15-.57-.08-.19-.18-.4-.3-.62-.09-.16-.43-.73-.91-1.51-.46-.77-1.04-1.72-1.63-2.68-.57-.93-1.14-1.87-1.61-2.64-.46-.75-.83-1.34-1-1.62l-.02-.03c-.17-.28-.33-.52-.46-.75-.13-.22-.24-.43-.34-.64-.09-.21-.18-.42-.24-.65-.08-.23-.13-.48-.17-.77,0-.01,0-.03,0-.04-.01-.01-.01-.02-.02-.03-.02,0-.03-.02-.05-.02-.02-.01-.06-.02-.1-.03M31.83,23.59s-.06-.02-.08-.02c-.02,0-.04,0-.05,0-.02,0-.02,0-.04,0-.01,0-.02.01-.03.02-.23.13-.44.24-.64.34-.2.09-.4.17-.61.25-.21.08-.43.14-.66.22-.24.07-.51.14-.81.23h-.03c-.3.09-.93.28-1.74.51-.81.23-1.79.52-2.77.8-.99.29-1.98.57-2.76.8-.79.23-1.37.4-1.52.45-.22.07-.41.13-.58.2-.17.07-.31.14-.45.22-.13.08-.25.17-.37.27-.12.1-.23.22-.34.34l-2.24,2.61c-.12.14-.22.27-.3.4-.08.12-.13.25-.17.36-.03.12-.04.24-.03.37.01.13.04.27.08.42.04.11.18.52.38,1.08.2.57.46,1.32.75,2.11.28.8.59,1.63.84,2.34.26.73.48,1.32.58,1.6v.03c.12.29.21.54.3.78.08.24.15.47.19.7.04.23.07.47.08.73.01.26,0,.56-.03.89,0,.02,0,.04,0,.05,0,.01.01.02.02.03.01,0,.04.02.06.03.03,0,.06.02.11.03.05.01.09.02.11.02.04,0,.06,0,.08,0,.02,0,.03,0,.05-.02.02,0,.03-.02.05-.04.37-.26.7-.47,1.01-.66.31-.19.6-.34.9-.49.3-.15.6-.28.94-.42.33-.14.7-.28,1.11-.45l.04-.02c.41-.16,1.25-.5,2.28-.91,1.02-.41,2.22-.89,3.36-1.35,1.13-.46,2.2-.89,3.04-1.23.82-.33,1.4-.56,1.56-.64.21-.09.4-.18.56-.27.16-.09.3-.19.42-.29.11-.1.21-.21.31-.33.09-.13.16-.26.25-.42l1.4-2.86c.07-.14.12-.27.15-.39.04-.12.05-.23.04-.35,0-.11-.03-.23-.08-.35-.04-.12-.11-.25-.21-.39-.06-.1-.29-.46-.61-.95-.32-.49-.72-1.1-1.13-1.71-.39-.6-.79-1.21-1.12-1.7-.33-.49-.59-.88-.7-1.05l-.02-.02c-.12-.18-.23-.34-.32-.49-.09-.15-.17-.29-.24-.42-.06-.14-.12-.27-.15-.43-.04-.15-.07-.31-.09-.5v-.02s0-.01-.02-.02c-.01,0-.02,0-.05-.01-.02,0-.04-.02-.08-.02"/>
  <path class="cls-3" d="M63.47,56.96v-3.19c1.69.68,3.64,1.02,5.86,1.02,1.65,0,2.48-.53,2.48-1.6,0-.97-.56-1.45-1.67-1.45h-2.76c-3.09,0-4.64-1.55-4.64-4.64s2.26-4.79,6.77-4.79c1.91,0,3.72.29,5.41.87v3.19c-1.69-.68-3.53-1.02-5.51-1.02s-3.12.53-3.12,1.6c0,.97.6,1.45,1.81,1.45h2.46c3.38,0,5.08,1.55,5.08,4.64s-2.15,4.79-6.47,4.79c-2.12,0-4.02-.29-5.71-.87Z"/>
  <path class="cls-3" d="M77.74,39.99h2.84l.58,2.46h3.54v3.04h-3.12v7c0,1.42.61,2.13,1.84,2.13h1.28v3.04h-3.13c-2.55,0-3.83-1.37-3.83-4.1v-13.59Z"/>
  <path class="cls-3" d="M86.49,52.94c0-3.12,2.2-4.68,6.61-4.68,1.32,0,2.5.1,3.54.29v-1c0-1.36-1.32-2.05-3.96-2.05-1.66,0-3.32.24-4.96.73v-3.04c1.64-.48,3.3-.73,4.96-.73,5.2,0,7.8,1.67,7.8,5.02v10.21h-1.94l-1.65-1.07c-1.33.72-2.74,1.07-4.23,1.07-4.11,0-6.16-1.58-6.16-4.74ZM93.1,51.16c-1.85,0-2.77.58-2.77,1.74s.77,1.74,2.32,1.74,2.89-.4,3.99-1.19v-2c-.97-.19-2.15-.29-3.54-.29Z"/>
  <path class="cls-3" d="M102.77,57.68v-15.23h2.97l.48,1.94c1.33-1.3,2.75-1.94,4.23-1.94v3.1c-1.43,0-2.71.64-3.84,1.93v10.19h-3.84Z"/>
  <path class="cls-3" d="M115.88,36.95v20.74h-3.84v-20.74h3.84Z"/>
  <path class="cls-3" d="M122.76,36.95v3.05h-3.84v-3.05h3.84ZM122.76,42.46v15.23h-3.84v-15.23h3.84Z"/>
  <path class="cls-3" d="M125.79,57.68v-15.23h2.97l.48,1.94c1.85-1.3,3.7-1.94,5.57-1.94,3.51,0,5.26,1.89,5.26,5.67v9.56h-3.84v-9.6c0-1.68-.84-2.52-2.51-2.52-1.34,0-2.71.64-4.09,1.93v10.19h-3.84Z"/>
  <path class="cls-3" d="M155.96,51.56h-9.96c0,2.05,1.67,3.07,5.02,3.07,1.54,0,3.07-.15,4.61-.44v3.04c-1.34.29-3.07.44-5.19.44-5.52,0-8.28-2.6-8.28-7.79s2.53-7.44,7.58-7.44,7.12,3.04,6.22,9.11ZM146,48.75h6.35c.14-2.18-.88-3.28-3.04-3.28-2.03,0-3.13,1.09-3.31,3.28Z"/>
  <path class="cls-3" d="M158.62,56.96v-1.45c1.69.58,3.45.87,5.28.87,3.2,0,4.8-1.02,4.8-3.04,0-1.64-1.18-2.47-3.55-2.47h-2.46c-3.19,0-4.78-1.35-4.78-4.06,0-2.9,2.11-4.35,6.34-4.35,1.82,0,3.57.24,5.26.73v1.45c-1.69-.58-3.45-.87-5.26-.87-3.21,0-4.81,1.01-4.81,3.04,0,1.74,1.09,2.61,3.26,2.61h2.46c3.38,0,5.08,1.31,5.08,3.92,0,2.9-2.11,4.35-6.32,4.35-1.83,0-3.59-.24-5.28-.73Z"/>
  <path class="cls-3" d="M185.46,50.4h-11.41c0,3.98,2.35,5.97,7.05,5.97,1.34,0,2.69-.14,4.03-.44v1.31c-1.34.29-2.98.44-4.9.44-5.13,0-7.7-2.6-7.7-7.79s2.43-7.44,7.29-7.44c4.47,0,6.35,2.65,5.64,7.95ZM174.05,49.04h9.98c.23-3.54-1.32-5.31-4.64-5.31s-5.16,1.77-5.34,5.31Z"/>
  <path class="cls-3" d="M200.58,57.25c-1.26.29-2.61.44-4.06.44-5.51,0-8.27-2.63-8.27-7.9,0-4.88,2.75-7.32,8.27-7.32,1.45,0,2.8.15,4.06.44v1.3c-1.26-.29-2.51-.43-3.77-.43-4.59,0-6.89,2.01-6.89,6.02,0,4.4,2.29,6.6,6.89,6.6,1.26,0,2.51-.14,3.77-.44v1.31Z"/>
  <path class="cls-3" d="M216.09,42.46v15.23h-1.12l-.17-1.94c-2.52,1.3-4.72,1.94-6.58,1.94-3.31,0-4.96-1.89-4.96-5.67v-9.56h1.52v9.6c0,2.84,1.41,4.26,4.23,4.26,1.54,0,3.39-.64,5.55-1.93v-11.93h1.52Z"/>
  <path class="cls-3" d="M219.84,57.68v-15.23h1.09l.19,1.94c.85-1.3,2.21-1.94,4.09-1.94v1.22c-1.82,0-3.1.64-3.84,1.93v12.08h-1.52Z"/>
  <path class="cls-3" d="M228.89,36.95v1.45h-1.52v-1.45h1.52ZM228.89,42.46v15.23h-1.52v-15.23h1.52Z"/>
  <path class="cls-3" d="M232.65,39.99h.96l.29,2.46h3.83v1.31h-3.55v9.61c0,2,.76,3,2.28,3h1.28v1.3h-1.25c-2.55,0-3.83-1.37-3.83-4.1v-13.59Z"/>
  <path class="cls-3" d="M238.22,42.46h1.75l5.66,13.75,5.57-13.75h1.68l-6.61,15.68c-1.12,2.76-2.8,4.49-5.05,5.18l-.45-1.22c1.76-.64,3.1-2.03,4.03-4.18l-6.58-15.46Z"/>
  <path class="cls-1" d="M62.43,63.39h.74l1.56,6.37,2.3-6.37h.53l2.36,6.23,1.59-6.23h.71l-1.89,7.24h-.75l-2.28-6.17-2.25,6.17h-.78l-1.83-7.24Z"/>
  <path class="cls-1" d="M75.45,60.77v.69h-.72v-.69h.72ZM75.45,63.39v7.24h-.72v-7.24h.72Z"/>
  <path class="cls-1" d="M78.65,70.63v-7.24h.52l.09.92c1.2-.62,2.24-.92,3.13-.92,1.58,0,2.37.76,2.37,2.28v4.96h-.73v-4.98c0-1.08-.6-1.61-1.81-1.61-.87,0-1.82.31-2.84.92v5.68h-.72Z"/>
  <path class="cls-1" d="M94.09,70.2c-.88.29-1.96.43-3.25.43-2.16,0-3.24-1.26-3.24-3.77,0-2.32,1.14-3.48,3.44-3.48.63,0,1.4.11,2.32.34v-2.97h.72v9.43ZM93.37,64.45c-.88-.25-1.66-.37-2.32-.37-1.78,0-2.67.91-2.67,2.74,0,2.11.89,3.17,2.67,3.17.66,0,1.44-.09,2.32-.27v-5.26Z"/>
  <path class="cls-1" d="M96.95,67.01c0-2.41,1.15-3.62,3.45-3.62s3.45,1.21,3.45,3.62-1.15,3.62-3.45,3.62-3.44-1.2-3.45-3.62ZM100.4,70.01c1.82,0,2.72-1.01,2.72-3.03s-.91-2.97-2.72-2.97-2.73.99-2.73,2.97.91,3.03,2.73,3.03Z"/>
  <path class="cls-1" d="M106.01,63.39h.74l1.56,6.37,2.3-6.37h.53l2.36,6.23,1.59-6.23h.71l-1.89,7.24h-.75l-2.28-6.17-2.25,6.17h-.78l-1.83-7.24Z"/>
  <path class="cls-1" d="M122.79,70.29v-.69c.8.28,1.64.41,2.51.41,1.52,0,2.28-.48,2.28-1.45,0-.78-.56-1.17-1.69-1.17h-1.17c-1.52,0-2.28-.64-2.28-1.93,0-1.38,1-2.07,3.01-2.07.86,0,1.7.11,2.5.34v.69c-.8-.28-1.64-.41-2.5-.41-1.53,0-2.29.48-2.29,1.45,0,.83.52,1.24,1.55,1.24h1.17c1.61,0,2.41.62,2.41,1.86,0,1.38-1,2.07-3.01,2.07-.87,0-1.71-.11-2.51-.35Z"/>
  <path class="cls-1" d="M136.68,70.43c-.6.14-1.24.21-1.93.21-2.62,0-3.93-1.25-3.93-3.76,0-2.32,1.31-3.48,3.93-3.48.69,0,1.33.07,1.93.21v.62c-.6-.14-1.2-.21-1.79-.21-2.18,0-3.28.95-3.28,2.86,0,2.09,1.09,3.14,3.28,3.14.6,0,1.2-.07,1.79-.21v.62Z"/>
  <path class="cls-1" d="M139.36,70.63v-7.24h.52l.09.92c.41-.62,1.05-.92,1.95-.92v.58c-.87,0-1.48.31-1.83.92v5.75h-.72Z"/>
  <path class="cls-1" d="M150.17,67.17h-5.43c0,1.9,1.12,2.84,3.35,2.84.64,0,1.28-.07,1.92-.21v.62c-.64.14-1.42.21-2.33.21-2.44,0-3.66-1.23-3.66-3.7s1.16-3.54,3.47-3.54c2.12,0,3.02,1.26,2.68,3.78ZM144.74,66.52h4.75c.11-1.68-.62-2.52-2.21-2.52s-2.45.84-2.54,2.52Z"/>
  <path class="cls-1" d="M159.06,67.17h-5.43c0,1.9,1.12,2.84,3.35,2.84.64,0,1.28-.07,1.92-.21v.62c-.64.14-1.42.21-2.33.21-2.44,0-3.66-1.23-3.66-3.7s1.16-3.54,3.47-3.54c2.12,0,3.02,1.26,2.68,3.78ZM153.64,66.52h4.75c.11-1.68-.63-2.52-2.21-2.52s-2.45.84-2.54,2.52Z"/>
  <path class="cls-1" d="M162.15,70.63v-7.24h.52l.09.92c1.2-.62,2.24-.92,3.13-.92,1.58,0,2.37.76,2.37,2.28v4.96h-.73v-4.98c0-1.08-.6-1.61-1.81-1.61-.87,0-1.82.31-2.84.92v5.68h-.72Z"/>
  <path class="cls-1" d="M171.46,70.29v-.69c.8.28,1.64.41,2.51.41,1.52,0,2.28-.48,2.28-1.45,0-.78-.56-1.17-1.69-1.17h-1.17c-1.52,0-2.28-.64-2.28-1.93,0-1.38,1-2.07,3.01-2.07.86,0,1.7.11,2.5.34v.69c-.8-.28-1.64-.41-2.5-.41-1.53,0-2.29.48-2.29,1.45,0,.83.52,1.24,1.55,1.24h1.17c1.61,0,2.41.62,2.41,1.86,0,1.38-1,2.07-3.01,2.07-.87,0-1.71-.11-2.51-.35Z"/>
  <path class="cls-1" d="M185.5,65.62c-1.03-.3-1.54-1.03-1.54-2.19,0-1.77,1.17-2.66,3.52-2.66.85,0,1.68.11,2.48.35v.62c-.85-.23-1.67-.34-2.46-.34-1.88,0-2.82.67-2.82,2s.77,1.93,2.31,1.93h3.23v-1.19h.5l.15,1.19h1.19v.62h-1.12v1.31c0,2.27-1.19,3.4-3.57,3.4s-3.41-.91-3.41-2.74c0-1.14.51-1.9,1.54-2.3ZM187.01,65.94c-1.55,0-2.33.65-2.33,1.94,0,1.42.88,2.13,2.63,2.13,1.94,0,2.91-.92,2.91-2.77v-1.3h-3.21Z"/>
  <path class="cls-1" d="M204.85,70.2c-.88.29-1.96.43-3.25.43-2.16,0-3.24-1.26-3.24-3.77,0-2.32,1.14-3.48,3.44-3.48.63,0,1.4.11,2.33.34v-2.97h.72v9.43ZM204.13,64.45c-.88-.25-1.66-.37-2.32-.37-1.78,0-2.67.91-2.67,2.74,0,2.11.89,3.17,2.67,3.17.66,0,1.44-.09,2.32-.27v-5.26Z"/>
  <path class="cls-1" d="M207.71,67.01c0-2.41,1.15-3.62,3.45-3.62s3.45,1.21,3.45,3.62-1.15,3.62-3.45,3.62-3.44-1.2-3.45-3.62ZM211.16,70.01c1.82,0,2.72-1.01,2.72-3.03s-.91-2.97-2.72-2.97-2.73.99-2.73,2.97.91,3.03,2.73,3.03Z"/>
  <path class="cls-1" d="M217.11,67.01c0-2.41,1.15-3.62,3.45-3.62s3.45,1.21,3.45,3.62-1.15,3.62-3.45,3.62-3.44-1.2-3.45-3.62ZM220.56,70.01c1.82,0,2.72-1.01,2.72-3.03s-.91-2.97-2.72-2.97-2.73.99-2.73,2.97.91,3.03,2.73,3.03Z"/>
  <path class="cls-1" d="M226.87,70.63v-7.24h.52l.09.92c.41-.62,1.05-.92,1.95-.92v.58c-.87,0-1.47.31-1.83.92v5.75h-.72Z"/>
  <path class="cls-1" d="M231.86,70.29v-.69c.8.28,1.64.41,2.51.41,1.52,0,2.28-.48,2.28-1.45,0-.78-.56-1.17-1.69-1.17h-1.17c-1.52,0-2.28-.64-2.28-1.93,0-1.38,1-2.07,3.01-2.07.86,0,1.7.11,2.5.34v.69c-.8-.28-1.64-.41-2.5-.41-1.53,0-2.29.48-2.29,1.45,0,.83.52,1.24,1.55,1.24h1.17c1.61,0,2.41.62,2.41,1.86,0,1.38-1,2.07-3.01,2.07-.87,0-1.71-.11-2.51-.35Z"/>
</svg>