<?xml version="1.0" encoding="UTF-8"?>
<svg id="Layer_1" xmlns="http://www.w3.org/2000/svg" xmlns:xlink="http://www.w3.org/1999/xlink" version="1.1" viewBox="0 0 237.3 68.7">
  <!-- Generator: Adobe Illustrator 30.0.0, SVG Export Plug-In . SVG Version: 2.1.1 Build 123)  -->
  <defs>
    <style>
      .st0 {
        fill: url(#linear-gradient);
      }

      .st1 {
        fill: #fff;
      }
    </style>
    <linearGradient id="linear-gradient" x1="10.5" y1="-2.3" x2="39.7" y2="64.3" gradientTransform="translate(0 56.4) scale(1 -1)" gradientUnits="userSpaceOnUse">
      <stop offset="0" stop-color="#c4dc78"/>
      <stop offset="0" stop-color="#8fcc8c"/>
      <stop offset=".2" stop-color="#4dbe9b"/>
      <stop offset=".6" stop-color="#0898c6"/>
      <stop offset=".8" stop-color="#2478b5"/>
      <stop offset="1" stop-color="#4e499e"/>
    </linearGradient>
  </defs>
  <path class="st0" d="M48.5,8.2s0,0,0,0c0,0,0,0,0,0,0,0,0,0,0,0,0,0,0,0,0,0,0,.2.2.3.3.4s.2.2.3.4c.1.1.2.2.4.4s.3.3.5.4h0c.2.2.6.5,1.1.9s1.1.9,1.7,1.4c.6.5,1.2,1,1.7,1.4.5.4.8.7.9.8.1.1.2.2.3.3,0,.1.2.2.2.3,0,0,0,.2.1.3,0,.1,0,.2,0,.3l.3,2.3c0,.1,0,.2,0,.3,0,.1,0,.2,0,.3,0,0,0,.2-.2.2,0,0-.2.1-.3.2,0,0-.4.2-.9.5-.5.3-1.1.6-1.7.9-.7.3-1.3.7-1.9,1-.6.3-1,.6-1.3.7h0c-.2.1-.4.2-.6.3-.2,0-.3.2-.5.3-.2,0-.3.2-.4.4s-.3.3-.4.5c0,0,0,0,0,0,0,0,0,0,0,0h0s0,0,0,0c0,0,0,0,0,0s0,0,0,0c0,0,0,0,0,0,0,0,0,0,0,0-.1-.3-.3-.5-.4-.7-.1-.2-.3-.4-.4-.6-.2-.2-.3-.3-.5-.5-.2-.2-.4-.4-.6-.6h0c-.2-.2-.7-.7-1.2-1.3-.5-.6-1.2-1.2-1.8-1.9s-1.2-1.2-1.6-1.7c-.4-.5-.8-.8-.8-.9-.1-.1-.2-.2-.3-.3,0-.1-.1-.2-.2-.3,0-.1,0-.2,0-.3,0-.1,0-.2,0-.3l.4-2.1c0-.1,0-.2,0-.3,0,0,0-.1.2-.2,0,0,.1-.1.2-.2,0,0,.2-.1.3-.2,0,0,.5-.2.9-.4.5-.2,1.1-.4,1.7-.6.6-.2,1.2-.5,1.7-.7.5-.2.9-.3,1.1-.4h0c.2,0,.4-.1.5-.2.2,0,.3-.1.4-.2.1,0,.2-.1.3-.2.1,0,.2-.2.3-.3,0,0,0,0,0,0h0s0,0,0,0M30.2,4.2s0,0,0,0h0s0,0,0,0c-.2,0-.3.2-.5.2-.1,0-.3.1-.4.2-.2,0-.3.1-.5.1s-.4.1-.6.2h0c-.2,0-.7.2-1.3.4-.6.2-1.3.4-2.1.6-.7.2-1.5.4-2,.6-.6.2-1,.3-1.1.3-.2,0-.3,0-.4.1s-.2.1-.3.1c0,0-.2.1-.2.2,0,0-.1.1-.2.2l-1.2,1.9c0,.1-.1.2-.2.3,0,0,0,.2,0,.3s0,.2,0,.3c0,0,0,.2.2.3,0,0,.3.4.5.8.3.4.7,1,1.1,1.5.4.6.8,1.2,1.2,1.7.4.5.7.9.8,1.1h0c.1.2.3.4.4.6s.2.3.3.5c0,.2.2.3.2.5,0,.2.1.4.2.6h0s0,0,0,0h0s0,0,0,0c0,0,0,0,0,0h0s0,0,0,0c0,0,0,0,0,0,.2-.2.4-.3.6-.4.2-.1.4-.2.6-.3.2-.1.4-.2.6-.3.2-.1.5-.2.8-.3h0c.3-.1.9-.3,1.6-.6.7-.3,1.5-.6,2.3-.9.8-.3,1.6-.6,2.2-.8.6-.2,1-.4,1.1-.4.2,0,.3-.1.4-.2,0,0,.2-.1.3-.2,0,0,.1-.1.2-.2,0,0,0-.2.1-.3l.6-2c0-.1,0-.2,0-.3s0-.2,0-.3,0-.2-.1-.3-.1-.2-.2-.3c0,0-.3-.4-.7-.7-.3-.4-.8-.8-1.2-1.3-.5-.5-.9-.9-1.3-1.3-.4-.4-.7-.7-.8-.8h0c-.1-.1-.3-.3-.4-.4-.1-.1-.2-.2-.3-.3,0-.1-.2-.2-.2-.3,0-.1-.1-.2-.2-.4h0s0,0,0,0c0,0,0,0,0,0,0,0,0,0,0,0M37.4,14.6s0,0,0,0h0s0,0,0,0c-.2.1-.3.3-.5.4-.2.1-.3.2-.5.3-.2,0-.3.2-.5.2-.2,0-.4.2-.7.3h0c-.3.1-.8.3-1.5.6-.7.3-1.5.6-2.3.9-.8.3-1.7.7-2.3.9-.7.3-1.2.5-1.3.5-.2,0-.3.2-.5.2-.1,0-.2.2-.3.2,0,0-.2.2-.2.3s-.1.2-.2.4l-1.1,2.9c0,.2-.1.3-.1.5,0,.1,0,.3,0,.4,0,.1,0,.3.1.4,0,.2.1.3.2.5,0,.1.4.6.8,1.2.4.6,1,1.5,1.5,2.3.6.9,1.2,1.8,1.7,2.6.5.8,1,1.5,1.2,1.8h0c.2.3.4.6.6.9s.3.5.5.8c.1.3.2.5.4.8.1.3.2.6.3,1,0,0,0,0,0,0,0,0,0,0,0,0,0,0,0,0,0,0,0,0,0,0,.1,0,0,0,0,0,.1,0h0s0,0,0,0c0,0,0,0,0,0,.3-.3.5-.5.7-.8.2-.2.4-.4.7-.6.2-.2.5-.3.7-.5.3-.2.6-.3.9-.5h0c.3-.2,1-.6,1.8-1.1.8-.5,1.8-1,2.7-1.6.9-.5,1.8-1,2.4-1.4.7-.4,1.1-.7,1.2-.7.2-.1.3-.2.4-.3.1,0,.2-.2.3-.3s.1-.2.2-.4,0-.3,0-.5l.2-3.2c0-.2,0-.3,0-.4,0-.1,0-.3-.1-.4,0-.1-.1-.2-.2-.4,0-.1-.2-.3-.3-.4,0-.1-.5-.5-1-1-.5-.5-1.1-1.2-1.7-1.9-.6-.7-1.2-1.3-1.7-1.9-.5-.5-.9-1-1.1-1.2h0c-.2-.2-.3-.4-.5-.6-.1-.2-.3-.3-.4-.5-.1-.1-.2-.3-.3-.5s-.2-.4-.3-.5h0s0,0,0,0,0,0,0,0c0,0,0,0,0,0M40.7,0s0,0,0,0h0s0,0,0,0c-.1,0-.2.1-.3.2-.1,0-.2.1-.3.1-.1,0-.2,0-.4.1s-.3,0-.5.1h0c-.2,0-.5.1-1,.3-.5.1-1,.3-1.6.4s-1.1.3-1.6.4c-.4.1-.8.2-.9.2-.1,0-.2,0-.3.1,0,0-.2,0-.2.1,0,0-.1,0-.2.1,0,0,0,.1,0,.2l-.6,1.5c0,0,0,.1,0,.2,0,0,0,.1,0,.2,0,0,0,.1.1.2,0,0,.1.1.2.2,0,0,.3.3.6.6s.8.8,1.2,1.2c.5.4.9.9,1.3,1.3.4.4.7.7.9.9h0c.2.2.3.3.4.4.1.1.2.2.3.4s.2.2.3.4c0,.1.2.3.3.5,0,0,0,0,0,0,0,0,0,0,0,0,0,0,0,0,0,0,0,0,0,0,0,0,0,0,0,0,0,0h0s0,0,0,0c.2-.1.3-.2.4-.3.1,0,.3-.2.4-.2.2,0,.3-.1.5-.2.2,0,.3-.1.6-.2h0c.2,0,.7-.2,1.2-.4s1.2-.4,1.8-.6c.6-.2,1.2-.4,1.6-.6.4-.1.8-.3.8-.3.1,0,.2,0,.3-.1,0,0,.2-.1.2-.1,0,0,0-.1.1-.2,0,0,0-.1,0-.2v-1.6c.1,0,.1-.1.1-.2,0,0,0-.1,0-.2,0,0,0-.1-.2-.2,0,0-.2-.1-.2-.2,0,0-.3-.3-.7-.6-.4-.3-.8-.7-1.3-1s-.9-.7-1.3-1c-.4-.3-.7-.5-.8-.6h0c-.1-.1-.3-.2-.4-.3-.1,0-.2-.2-.3-.3s-.2-.2-.2-.3c0,0-.1-.2-.2-.3,0,0,0,0,0,0h0s0,0,0,0c0,0,0,0,0,0M21.6,23.8s0,0,0,0h0s0,0,0,0h0c-.3.2-.5.4-.7.6-.2.2-.5.3-.7.4-.2.1-.5.2-.8.4s-.6.3-1,.4h0c-.4.2-1.1.5-2.1.9-1,.4-2.2.9-3.3,1.4-1.2.5-2.4,1-3.4,1.4-1,.4-1.7.7-1.9.8-.3.1-.5.2-.7.4-.2.1-.4.2-.5.4s-.3.3-.5.5c-.1.2-.3.4-.4.6l-2.7,4.4c-.1.2-.3.5-.4.7s-.2.4-.2.6,0,.4,0,.6c0,.2,0,.5.1.7,0,.2.2.9.5,1.8.3,1,.7,2.2,1.1,3.6.4,1.4.9,2.8,1.2,4,.4,1.3.7,2.3.9,2.8h0c.2.6.3,1,.4,1.4.1.4.2.8.3,1.2,0,.4.1.8.2,1.3,0,.5,0,1,0,1.6h0c0,.1,0,.1,0,.1s0,0,0,0c0,0,0,0,.1,0,0,0,.1,0,.1,0h.1s0,0,0,0c0,0,0,0,0,0,.5-.5.9-.9,1.3-1.3.4-.4.8-.7,1.2-1,.4-.3.8-.6,1.2-.8.4-.3.9-.6,1.4-.9h0c.5-.4,1.6-1,2.9-1.9,1.3-.8,2.8-1.8,4.2-2.7,1.4-.9,2.7-1.7,3.8-2.4,1-.6,1.7-1.1,1.9-1.2.3-.2.5-.3.7-.5.2-.2.3-.3.5-.5.1-.2.2-.4.3-.6,0-.2.2-.5.2-.7l1.3-4.9c0-.2.1-.5.1-.7s0-.4,0-.6c0-.2,0-.4-.2-.6,0-.2-.2-.4-.3-.6,0-.2-.4-.7-.9-1.5-.5-.8-1-1.7-1.6-2.7-.6-.9-1.1-1.9-1.6-2.6-.5-.8-.8-1.3-1-1.6h0c-.2-.3-.3-.5-.5-.8-.1-.2-.2-.4-.3-.6,0-.2-.2-.4-.2-.7,0-.2-.1-.5-.2-.8h0s0,0,0,0c0,0,0,0,0,0,0,0,0,0,0,0M16.2,9.9s0,0,0,0h0s0,0,0,0c-.2.1-.4.2-.6.3-.2,0-.4.2-.6.2-.2,0-.4.1-.7.2-.2,0-.5.1-.8.2h0c-.3,0-.9.3-1.7.5s-1.8.5-2.8.8c-1,.3-2,.6-2.8.8-.8.2-1.4.4-1.5.5-.2,0-.4.1-.6.2-.2,0-.3.1-.5.2-.1,0-.2.2-.4.3s-.2.2-.3.3l-2.2,2.6c-.1.1-.2.3-.3.4,0,.1-.1.2-.2.4,0,.1,0,.2,0,.4,0,.1,0,.3,0,.4,0,.1.2.5.4,1.1.2.6.5,1.3.8,2.1.3.8.6,1.6.8,2.3.3.7.5,1.3.6,1.6h0c.1.3.2.6.3.8,0,.2.1.5.2.7s0,.5,0,.7,0,.6,0,.9h0c0,0,0,0,0,0,0,0,0,0,0,0,0,0,0,0,.1,0,0,0,0,0,.1,0h0s0,0,0,0c0,0,0,0,0,0,.4-.3.7-.5,1-.7s.6-.3.9-.5.6-.3.9-.4c.3-.1.7-.3,1.1-.5h0c.4-.2,1.2-.5,2.3-.9,1-.4,2.2-.9,3.4-1.3,1.1-.5,2.2-.9,3-1.2.8-.3,1.4-.6,1.6-.6.2,0,.4-.2.6-.3s.3-.2.4-.3c.1,0,.2-.2.3-.3,0-.1.2-.3.2-.4l1.4-2.9c0-.1.1-.3.2-.4,0-.1,0-.2,0-.4,0-.1,0-.2,0-.4,0-.1-.1-.2-.2-.4,0-.1-.3-.5-.6-1-.3-.5-.7-1.1-1.1-1.7-.4-.6-.8-1.2-1.1-1.7-.3-.5-.6-.9-.7-1h0c-.1-.2-.2-.4-.3-.5s-.2-.3-.2-.4c0-.1-.1-.3-.2-.4,0-.1,0-.3,0-.5h0s0,0,0,0c0,0,0,0,0,0,0,0,0,0,0,0"/>
  <path class="st1" d="M47.9,43.2v-3.2c1.7.7,3.6,1,5.9,1s2.5-.5,2.5-1.6-.6-1.5-1.7-1.5h-2.8c-3.1,0-4.6-1.5-4.6-4.6s2.3-4.8,6.8-4.8,3.7.3,5.4.9v3.2c-1.7-.7-3.5-1-5.5-1s-3.1.5-3.1,1.6.6,1.5,1.8,1.5h2.5c3.4,0,5.1,1.5,5.1,4.6s-2.2,4.8-6.5,4.8-4-.3-5.7-.9h0Z"/>
  <path class="st1" d="M62.1,26.3h2.8l.6,2.5h3.5v3h-3.1v7c0,1.4.6,2.1,1.8,2.1h1.3v3h-3.1c-2.6,0-3.8-1.4-3.8-4.1v-13.6h0Z"/>
  <path class="st1" d="M70.9,39.2c0-3.1,2.2-4.7,6.6-4.7s2.5,0,3.5.3v-1c0-1.4-1.3-2-4-2s-3.3.2-5,.7v-3c1.6-.5,3.3-.7,5-.7,5.2,0,7.8,1.7,7.8,5v10.2h-1.9l-1.7-1.1c-1.3.7-2.7,1.1-4.2,1.1-4.1,0-6.2-1.6-6.2-4.7h0ZM77.5,37.4c-1.8,0-2.8.6-2.8,1.7s.8,1.7,2.3,1.7,2.9-.4,4-1.2v-2c-1-.2-2.2-.3-3.5-.3Z"/>
  <path class="st1" d="M87.2,44v-15.2h3l.5,1.9c1.3-1.3,2.8-1.9,4.2-1.9v3.1c-1.4,0-2.7.6-3.8,1.9v10.2h-3.8Z"/>
  <path class="st1" d="M100.3,23.2v20.7h-3.8v-20.7s3.8,0,3.8,0Z"/>
  <path class="st1" d="M107.2,23.2v3h-3.8v-3h3.8ZM107.2,28.7v15.2h-3.8v-15.2h3.8Z"/>
  <path class="st1" d="M110.2,44v-15.2h3l.5,1.9c1.9-1.3,3.7-1.9,5.6-1.9,3.5,0,5.3,1.9,5.3,5.7v9.6h-3.8v-9.6c0-1.7-.8-2.5-2.5-2.5s-2.7.6-4.1,1.9v10.2h-3.8Z"/>
  <path class="st1" d="M140.4,37.8h-10c0,2,1.7,3.1,5,3.1s3.1-.2,4.6-.4v3c-1.3.3-3.1.4-5.2.4-5.5,0-8.3-2.6-8.3-7.8s2.5-7.4,7.6-7.4,7.1,3,6.2,9.1h0ZM130.4,35h6.4c.1-2.2-.9-3.3-3-3.3s-3.1,1.1-3.3,3.3h0Z"/>
  <path class="st1" d="M143,43.2v-1.5c1.7.6,3.4.9,5.3.9,3.2,0,4.8-1,4.8-3s-1.2-2.5-3.6-2.5h-2.5c-3.2,0-4.8-1.3-4.8-4.1s2.1-4.3,6.3-4.3,3.6.2,5.3.7v1.5c-1.7-.6-3.4-.9-5.3-.9-3.2,0-4.8,1-4.8,3s1.1,2.6,3.3,2.6h2.5c3.4,0,5.1,1.3,5.1,3.9s-2.1,4.3-6.3,4.3-3.6-.2-5.3-.7h0Z"/>
  <path class="st1" d="M169.9,36.7h-11.4c0,4,2.4,6,7.1,6s2.7-.1,4-.4v1.3c-1.3.3-3,.4-4.9.4-5.1,0-7.7-2.6-7.7-7.8s2.4-7.4,7.3-7.4,6.4,2.7,5.6,7.9ZM158.4,35.3h10c.2-3.5-1.3-5.3-4.6-5.3s-5.2,1.8-5.3,5.3Z"/>
  <path class="st1" d="M185,43.5c-1.3.3-2.6.4-4.1.4-5.5,0-8.3-2.6-8.3-7.9s2.8-7.3,8.3-7.3,2.8.2,4.1.4v1.3c-1.3-.3-2.5-.4-3.8-.4-4.6,0-6.9,2-6.9,6s2.3,6.6,6.9,6.6,2.5-.1,3.8-.4v1.3h0Z"/>
  <path class="st1" d="M200.5,28.7v15.2h-1.1l-.2-1.9c-2.5,1.3-4.7,1.9-6.6,1.9-3.3,0-5-1.9-5-5.7v-9.6h1.5v9.6c0,2.8,1.4,4.3,4.2,4.3s3.4-.6,5.6-1.9v-11.9h1.5Z"/>
  <path class="st1" d="M204.2,44v-15.2h1.1l.2,1.9c.9-1.3,2.2-1.9,4.1-1.9v1.2c-1.8,0-3.1.6-3.8,1.9v12.1h-1.5Z"/>
  <path class="st1" d="M213.3,23.2v1.5h-1.5v-1.5h1.5ZM213.3,28.7v15.2h-1.5v-15.2h1.5Z"/>
  <path class="st1" d="M217,26.3h1l.3,2.5h3.8v1.3h-3.6v9.6c0,2,.8,3,2.3,3h1.3v1.3h-1.2c-2.6,0-3.8-1.4-3.8-4.1v-13.6h0Z"/>
  <path class="st1" d="M222.6,28.7h1.8l5.7,13.8,5.6-13.8h1.7l-6.6,15.7c-1.1,2.8-2.8,4.5-5.1,5.2l-.4-1.2c1.8-.6,3.1-2,4-4.2l-6.6-15.5Z"/>
</svg>